<svg width="500" height="500" viewBox="0 0 500 500" fill="none" xmlns="http://www.w3.org/2000/svg">
<rect width="500" height="500" fill="black"/>
<path d="M98.5158 321.125C96.8508 321.125 95.3508 320.975 94.0158 320.675C92.6808 320.39 91.5408 319.97 90.5958 319.415C89.6658 318.86 88.9533 318.193 88.4583 317.413C87.9633 316.633 87.7158 315.763 87.7158 314.803C87.7158 314.038 87.9183 313.318 88.3233 312.643C88.7433 311.968 89.3583 311.39 90.1683 310.91C90.9933 310.415 91.9983 310.047 93.1833 309.807C92.2983 309.357 91.6383 308.847 91.2033 308.277C90.7833 307.707 90.5733 307.055 90.5733 306.32C90.5733 305.69 90.7533 305.097 91.1133 304.542C91.4883 303.972 92.0133 303.47 92.6883 303.035C93.3783 302.585 94.1883 302.217 95.1183 301.932C96.0483 301.647 97.0758 301.482 98.2008 301.437L99.2808 303.597C98.3508 303.582 97.5558 303.657 96.8958 303.822C96.2508 303.972 95.7483 304.19 95.3883 304.475C95.0433 304.745 94.8708 305.075 94.8708 305.465C94.8708 305.975 95.1633 306.35 95.7483 306.59C96.3333 306.815 97.1583 306.972 98.2233 307.062L102.048 307.355C103.923 307.505 105.521 307.812 106.841 308.277C108.176 308.742 109.196 309.395 109.901 310.235C110.621 311.075 110.981 312.14 110.981 313.43C110.981 314.525 110.681 315.538 110.081 316.468C109.496 317.413 108.648 318.23 107.538 318.92C106.443 319.61 105.131 320.15 103.601 320.54C102.071 320.93 100.376 321.125 98.5158 321.125ZM99.0108 317.705C101.246 317.705 103.001 317.368 104.276 316.693C105.566 316.033 106.211 315.17 106.211 314.105C106.211 313.295 105.783 312.665 104.928 312.215C104.073 311.765 102.768 311.48 101.013 311.36L96.9183 311.045C95.9583 311.12 95.1258 311.3 94.4208 311.585C93.7308 311.87 93.2058 312.238 92.8458 312.688C92.4858 313.138 92.3058 313.648 92.3058 314.218C92.3058 314.908 92.5758 315.515 93.1158 316.04C93.6558 316.565 94.4283 316.97 95.4333 317.255C96.4383 317.555 97.6308 317.705 99.0108 317.705ZM98.8533 303.935C96.9933 303.935 95.3208 303.582 93.8358 302.877C92.3658 302.172 91.2033 301.22 90.3483 300.02C89.4933 298.82 89.0658 297.477 89.0658 295.992C89.0658 294.507 89.4933 293.165 90.3483 291.965C91.2183 290.765 92.3883 289.812 93.8583 289.107C95.3433 288.402 97.0083 288.05 98.8533 288.05C100.698 288.05 102.356 288.402 103.826 289.107C105.296 289.812 106.458 290.765 107.313 291.965C108.183 293.165 108.618 294.507 108.618 295.992C108.618 297.462 108.191 298.797 107.336 299.997C106.481 301.197 105.318 302.157 103.848 302.877C102.378 303.582 100.713 303.935 98.8533 303.935ZM98.8533 300.222C99.8733 300.222 100.781 300.05 101.576 299.705C102.371 299.345 102.993 298.85 103.443 298.22C103.893 297.575 104.118 296.832 104.118 295.992C104.118 294.732 103.623 293.712 102.633 292.932C101.658 292.137 100.398 291.74 98.8533 291.74C97.8183 291.74 96.9033 291.92 96.1083 292.28C95.3283 292.64 94.7133 293.142 94.2633 293.787C93.8133 294.417 93.5883 295.152 93.5883 295.992C93.5883 297.237 94.0758 298.257 95.0508 299.052C96.0408 299.832 97.3083 300.222 98.8533 300.222ZM102.318 292.64L100.473 289.197L112.421 288.725L112.376 292.82L102.318 292.64ZM118.768 321.08C117.958 321.08 117.163 320.99 116.383 320.81C115.603 320.63 114.838 320.323 114.088 319.888L115.213 315.658C115.678 315.958 116.188 316.183 116.743 316.333C117.298 316.483 117.793 316.558 118.228 316.558C119.278 316.558 120.103 316.31 120.703 315.815C121.303 315.32 121.775 314.555 122.12 313.52L122.863 311.36L114.088 288.725H119.51L125.675 306.005L131.683 288.725H136.925L127.295 314.218C126.605 316.003 125.833 317.39 124.978 318.38C124.123 319.385 123.178 320.083 122.143 320.473C121.108 320.878 119.983 321.08 118.768 321.08ZM140.805 311V288.725H145.755V291.785C146.355 290.915 147.045 290.21 147.825 289.67C148.605 289.115 149.43 288.71 150.3 288.455C151.17 288.185 152.055 288.05 152.955 288.05C154.77 288.05 156.278 288.447 157.478 289.242C158.693 290.037 159.548 291.057 160.043 292.302C161.153 290.682 162.443 289.572 163.913 288.972C165.383 288.357 166.86 288.05 168.345 288.05C170.4 288.05 172.043 288.455 173.273 289.265C174.503 290.075 175.388 291.117 175.928 292.392C176.483 293.667 176.76 294.98 176.76 296.33V311H171.81V297.77C171.81 296.225 171.383 294.98 170.528 294.035C169.688 293.075 168.458 292.595 166.838 292.595C165.773 292.595 164.82 292.827 163.98 293.292C163.14 293.757 162.473 294.402 161.978 295.227C161.498 296.037 161.258 296.975 161.258 298.04V311H156.308V297.77C156.308 296.225 155.888 294.98 155.048 294.035C154.208 293.075 152.97 292.595 151.335 292.595C150.285 292.595 149.333 292.827 148.478 293.292C147.638 293.757 146.97 294.402 146.475 295.227C145.995 296.037 145.755 296.975 145.755 298.04V311H140.805ZM200.65 311.675C199.105 311.675 197.748 311.39 196.578 310.82C195.408 310.235 194.493 309.417 193.833 308.367C193.188 307.302 192.865 306.05 192.865 304.61C192.865 303.395 193.173 302.3 193.788 301.325C194.403 300.335 195.355 299.517 196.645 298.872C197.95 298.227 199.623 297.8 201.663 297.59C203.703 297.365 206.155 297.395 209.02 297.68L209.11 301.1C207.07 300.815 205.315 300.695 203.845 300.74C202.375 300.785 201.168 300.972 200.223 301.302C199.293 301.617 198.603 302.045 198.153 302.585C197.718 303.11 197.5 303.717 197.5 304.407C197.5 305.487 197.883 306.32 198.648 306.905C199.428 307.49 200.493 307.782 201.843 307.782C202.998 307.782 204.033 307.572 204.948 307.152C205.863 306.732 206.583 306.14 207.108 305.375C207.648 304.61 207.918 303.71 207.918 302.675V296.757C207.918 295.767 207.708 294.912 207.288 294.192C206.868 293.457 206.23 292.887 205.375 292.482C204.52 292.077 203.455 291.875 202.18 291.875C201.01 291.875 199.855 292.055 198.715 292.415C197.575 292.76 196.488 293.307 195.453 294.057L194.058 290.412C195.453 289.467 196.908 288.8 198.423 288.41C199.938 288.02 201.393 287.825 202.788 287.825C204.858 287.825 206.628 288.155 208.098 288.815C209.583 289.46 210.723 290.442 211.518 291.762C212.313 293.067 212.71 294.717 212.71 296.712V311H208.255V308.367C207.505 309.432 206.463 310.25 205.128 310.82C203.793 311.39 202.3 311.675 200.65 311.675ZM219.292 311V288.725H224.242V291.56C225.172 290.315 226.252 289.422 227.482 288.882C228.712 288.327 229.987 288.05 231.307 288.05C233.347 288.05 235.034 288.455 236.369 289.265C237.704 290.075 238.694 291.117 239.339 292.392C239.999 293.667 240.329 294.98 240.329 296.33V311H235.379V297.86C235.379 296.27 234.899 294.995 233.939 294.035C232.994 293.075 231.674 292.595 229.979 292.595C228.869 292.595 227.879 292.842 227.009 293.337C226.154 293.832 225.479 294.522 224.984 295.407C224.489 296.277 224.242 297.297 224.242 298.467V311H219.292ZM256.225 311.675C254.05 311.675 252.122 311.165 250.442 310.145C248.762 309.11 247.442 307.707 246.482 305.937C245.537 304.152 245.065 302.127 245.065 299.862C245.065 298.227 245.335 296.697 245.875 295.272C246.415 293.832 247.18 292.572 248.17 291.492C249.175 290.412 250.36 289.572 251.725 288.972C253.105 288.357 254.627 288.05 256.292 288.05C258.317 288.05 260.072 288.455 261.557 289.265C263.042 290.075 264.28 291.2 265.27 292.64L264.235 293.742V278.6H269.185V311H264.73V305.645L265.45 306.77C264.64 308.18 263.477 309.35 261.962 310.28C260.462 311.21 258.55 311.675 256.225 311.675ZM257.125 307.287C258.505 307.287 259.727 306.987 260.792 306.387C261.872 305.772 262.72 304.91 263.335 303.8C263.95 302.69 264.257 301.377 264.257 299.862C264.257 298.347 263.95 297.035 263.335 295.925C262.72 294.8 261.872 293.937 260.792 293.337C259.727 292.737 258.505 292.437 257.125 292.437C255.745 292.437 254.522 292.737 253.457 293.337C252.392 293.937 251.552 294.8 250.937 295.925C250.322 297.035 250.015 298.347 250.015 299.862C250.015 301.377 250.322 302.69 250.937 303.8C251.552 304.91 252.392 305.772 253.457 306.387C254.537 306.987 255.76 307.287 257.125 307.287ZM287.099 311V278.6H292.049V293.27L291.037 292.167C292.027 290.787 293.219 289.76 294.614 289.085C296.009 288.395 297.479 288.05 299.024 288.05C301.049 288.05 302.737 288.462 304.087 289.287C305.437 290.097 306.449 291.147 307.124 292.437C307.799 293.727 308.137 295.07 308.137 296.465V311H303.187V297.882C303.187 296.322 302.699 295.055 301.724 294.08C300.749 293.105 299.422 292.61 297.742 292.595C296.632 292.595 295.649 292.842 294.794 293.337C293.939 293.817 293.264 294.5 292.769 295.385C292.289 296.27 292.049 297.297 292.049 298.467V311H287.099ZM314.785 311V288.725H319.735V311H314.785ZM317.26 284.742C316.375 284.742 315.61 284.457 314.965 283.887C314.32 283.317 313.997 282.567 313.997 281.637C313.997 280.722 314.32 279.98 314.965 279.41C315.61 278.825 316.375 278.532 317.26 278.532C318.145 278.532 318.91 278.825 319.555 279.41C320.2 279.98 320.522 280.722 320.522 281.637C320.522 282.567 320.2 283.317 319.555 283.887C318.91 284.457 318.145 284.742 317.26 284.742ZM326.606 311V278.6H331.556V297.77L340.331 288.725H346.181L338.306 297.252L347.329 311H341.411L334.706 300.47L331.556 303.665V311H326.606ZM351.699 311V288.725H356.649V311H351.699ZM354.174 284.742C353.289 284.742 352.524 284.457 351.879 283.887C351.234 283.317 350.911 282.567 350.911 281.637C350.911 280.722 351.234 279.98 351.879 279.41C352.524 278.825 353.289 278.532 354.174 278.532C355.059 278.532 355.824 278.825 356.469 279.41C357.114 279.98 357.436 280.722 357.436 281.637C357.436 282.567 357.114 283.317 356.469 283.887C355.824 284.457 355.059 284.742 354.174 284.742ZM363.52 311V288.725H368.47V291.56C369.4 290.315 370.48 289.422 371.71 288.882C372.94 288.327 374.215 288.05 375.535 288.05C377.575 288.05 379.263 288.455 380.598 289.265C381.933 290.075 382.923 291.117 383.568 292.392C384.228 293.667 384.558 294.98 384.558 296.33V311H379.608V297.86C379.608 296.27 379.128 294.995 378.168 294.035C377.223 293.075 375.903 292.595 374.208 292.595C373.098 292.595 372.108 292.842 371.238 293.337C370.383 293.832 369.708 294.522 369.213 295.407C368.718 296.277 368.47 297.297 368.47 298.467V311H363.52ZM399.981 321.125C398.316 321.125 396.816 320.975 395.481 320.675C394.146 320.39 393.006 319.97 392.061 319.415C391.131 318.86 390.418 318.193 389.923 317.413C389.428 316.633 389.181 315.763 389.181 314.803C389.181 314.038 389.383 313.318 389.788 312.643C390.208 311.968 390.823 311.39 391.633 310.91C392.458 310.415 393.463 310.047 394.648 309.807C393.763 309.357 393.103 308.847 392.668 308.277C392.248 307.707 392.038 307.055 392.038 306.32C392.038 305.69 392.218 305.097 392.578 304.542C392.953 303.972 393.478 303.47 394.153 303.035C394.843 302.585 395.653 302.217 396.583 301.932C397.513 301.647 398.541 301.482 399.666 301.437L400.746 303.597C399.816 303.582 399.021 303.657 398.361 303.822C397.716 303.972 397.213 304.19 396.853 304.475C396.508 304.745 396.336 305.075 396.336 305.465C396.336 305.975 396.628 306.35 397.213 306.59C397.798 306.815 398.623 306.972 399.688 307.062L403.513 307.355C405.388 307.505 406.986 307.812 408.306 308.277C409.641 308.742 410.661 309.395 411.366 310.235C412.086 311.075 412.446 312.14 412.446 313.43C412.446 314.525 412.146 315.538 411.546 316.468C410.961 317.413 410.113 318.23 409.003 318.92C407.908 319.61 406.596 320.15 405.066 320.54C403.536 320.93 401.841 321.125 399.981 321.125ZM400.476 317.705C402.711 317.705 404.466 317.368 405.741 316.693C407.031 316.033 407.676 315.17 407.676 314.105C407.676 313.295 407.248 312.665 406.393 312.215C405.538 311.765 404.233 311.48 402.478 311.36L398.383 311.045C397.423 311.12 396.591 311.3 395.886 311.585C395.196 311.87 394.671 312.238 394.311 312.688C393.951 313.138 393.771 313.648 393.771 314.218C393.771 314.908 394.041 315.515 394.581 316.04C395.121 316.565 395.893 316.97 396.898 317.255C397.903 317.555 399.096 317.705 400.476 317.705ZM400.318 303.935C398.458 303.935 396.786 303.582 395.301 302.877C393.831 302.172 392.668 301.22 391.813 300.02C390.958 298.82 390.531 297.477 390.531 295.992C390.531 294.507 390.958 293.165 391.813 291.965C392.683 290.765 393.853 289.812 395.323 289.107C396.808 288.402 398.473 288.05 400.318 288.05C402.163 288.05 403.821 288.402 405.291 289.107C406.761 289.812 407.923 290.765 408.778 291.965C409.648 293.165 410.083 294.507 410.083 295.992C410.083 297.462 409.656 298.797 408.801 299.997C407.946 301.197 406.783 302.157 405.313 302.877C403.843 303.582 402.178 303.935 400.318 303.935ZM400.318 300.222C401.338 300.222 402.246 300.05 403.041 299.705C403.836 299.345 404.458 298.85 404.908 298.22C405.358 297.575 405.583 296.832 405.583 295.992C405.583 294.732 405.088 293.712 404.098 292.932C403.123 292.137 401.863 291.74 400.318 291.74C399.283 291.74 398.368 291.92 397.573 292.28C396.793 292.64 396.178 293.142 395.728 293.787C395.278 294.417 395.053 295.152 395.053 295.992C395.053 297.237 395.541 298.257 396.516 299.052C397.506 299.832 398.773 300.222 400.318 300.222ZM403.783 292.64L401.938 289.197L413.886 288.725L413.841 292.82L403.783 292.64ZM166.597 355.525C164.789 355.525 163.173 355.111 161.75 354.282C160.338 353.442 159.23 352.328 158.425 350.94C157.62 349.54 157.217 348.006 157.217 346.337C157.217 345.101 157.445 343.934 157.9 342.837C158.367 341.729 159.02 340.749 159.86 339.897C160.712 339.046 161.709 338.375 162.852 337.885C163.996 337.395 165.25 337.15 166.615 337.15C168.423 337.15 170.033 337.57 171.445 338.41C172.868 339.238 173.982 340.352 174.787 341.752C175.592 343.141 175.995 344.669 175.995 346.337C175.995 347.562 175.762 348.729 175.295 349.837C174.84 350.946 174.192 351.926 173.352 352.777C172.512 353.629 171.521 354.3 170.377 354.79C169.234 355.28 167.974 355.525 166.597 355.525ZM166.597 352.112C167.671 352.112 168.622 351.879 169.45 351.412C170.29 350.934 170.949 350.263 171.427 349.4C171.906 348.537 172.145 347.516 172.145 346.337C172.145 345.159 171.906 344.138 171.427 343.275C170.949 342.4 170.29 341.729 169.45 341.262C168.622 340.796 167.671 340.562 166.597 340.562C165.524 340.562 164.567 340.796 163.727 341.262C162.899 341.729 162.246 342.4 161.767 343.275C161.301 344.138 161.067 345.159 161.067 346.337C161.067 347.516 161.307 348.537 161.785 349.4C162.263 350.263 162.917 350.934 163.745 351.412C164.585 351.879 165.536 352.112 166.597 352.112ZM179.862 355V337.675H183.712V339.88C184.435 338.912 185.275 338.217 186.232 337.797C187.189 337.366 188.18 337.15 189.207 337.15C190.794 337.15 192.106 337.465 193.145 338.095C194.183 338.725 194.953 339.536 195.455 340.527C195.968 341.519 196.225 342.54 196.225 343.59V355H192.375V344.78C192.375 343.543 192.001 342.552 191.255 341.805C190.52 341.058 189.493 340.685 188.175 340.685C187.311 340.685 186.541 340.877 185.865 341.262C185.2 341.647 184.675 342.184 184.29 342.872C183.905 343.549 183.712 344.342 183.712 345.252V355H179.862ZM217.254 355.525C215.563 355.525 214.209 355.035 213.194 354.055C212.179 353.075 211.672 351.576 211.672 349.557V332.617H215.522V337.675H220.334V340.86H215.522V348.717C215.522 349.931 215.749 350.788 216.204 351.29C216.671 351.78 217.324 352.025 218.164 352.025C218.573 352.025 218.958 351.978 219.319 351.885C219.681 351.792 220.008 351.669 220.299 351.517L220.982 354.632C220.48 354.889 219.903 355.099 219.249 355.263C218.608 355.438 217.943 355.525 217.254 355.525ZM207.874 340.86V337.675H212.179V340.86H207.874ZM225.013 355V329.8H228.863V341.21L228.076 340.352C228.846 339.279 229.773 338.48 230.858 337.955C231.943 337.418 233.087 337.15 234.288 337.15C235.863 337.15 237.176 337.471 238.226 338.112C239.276 338.742 240.063 339.559 240.588 340.562C241.113 341.566 241.376 342.61 241.376 343.695V355H237.526V344.797C237.526 343.584 237.147 342.598 236.388 341.84C235.63 341.082 234.598 340.697 233.291 340.685C232.428 340.685 231.663 340.877 230.998 341.262C230.333 341.636 229.808 342.167 229.423 342.855C229.05 343.543 228.863 344.342 228.863 345.252V355H225.013ZM254.457 355.525C252.59 355.525 250.951 355.146 249.539 354.387C248.127 353.617 247.025 352.544 246.232 351.167C245.45 349.791 245.059 348.192 245.059 346.372C245.059 345.042 245.287 343.817 245.742 342.697C246.197 341.566 246.838 340.586 247.667 339.757C248.495 338.929 249.463 338.287 250.572 337.832C251.692 337.377 252.911 337.15 254.229 337.15C255.664 337.15 256.942 337.407 258.062 337.92C259.182 338.422 260.109 339.127 260.844 340.037C261.591 340.947 262.116 342.015 262.419 343.24C262.734 344.453 262.787 345.772 262.577 347.195H248.752C248.728 348.233 248.956 349.143 249.434 349.925C249.912 350.695 250.595 351.296 251.482 351.727C252.38 352.159 253.436 352.375 254.649 352.375C255.629 352.375 256.574 352.229 257.484 351.937C258.406 351.634 259.24 351.191 259.987 350.607L261.474 353.372C260.914 353.827 260.237 354.218 259.444 354.545C258.651 354.86 257.822 355.099 256.959 355.263C256.096 355.438 255.262 355.525 254.457 355.525ZM248.979 344.36H258.797C258.762 343.053 258.342 342.027 257.537 341.28C256.743 340.533 255.612 340.16 254.142 340.16C252.718 340.16 251.534 340.533 250.589 341.28C249.656 342.027 249.119 343.053 248.979 344.36ZM285.235 355.525C284.08 355.525 283.036 355.356 282.103 355.018C281.181 354.679 280.382 354.212 279.705 353.617C279.028 353.011 278.48 352.317 278.06 351.535L278.62 350.677V355H275.155V329.8H278.988V341.665L278.2 340.807C278.97 339.687 279.933 338.801 281.088 338.147C282.243 337.482 283.608 337.15 285.183 337.15C286.909 337.15 288.426 337.564 289.733 338.392C291.051 339.209 292.078 340.312 292.813 341.7C293.548 343.088 293.915 344.634 293.915 346.337C293.915 347.656 293.699 348.875 293.268 349.995C292.848 351.115 292.253 352.089 291.483 352.917C290.713 353.734 289.797 354.376 288.735 354.842C287.673 355.298 286.507 355.525 285.235 355.525ZM284.535 352.112C285.597 352.112 286.542 351.879 287.37 351.412C288.21 350.934 288.869 350.263 289.348 349.4C289.826 348.537 290.065 347.516 290.065 346.337C290.065 345.159 289.826 344.138 289.348 343.275C288.881 342.4 288.228 341.729 287.388 341.262C286.559 340.796 285.608 340.562 284.535 340.562C283.462 340.562 282.505 340.796 281.665 341.262C280.837 341.729 280.183 342.4 279.705 343.275C279.227 344.138 278.988 345.159 278.988 346.337C278.988 347.516 279.227 348.537 279.705 349.4C280.183 350.263 280.837 350.934 281.665 351.412C282.505 351.879 283.462 352.112 284.535 352.112ZM304.467 355.525C302.915 355.525 301.632 355.216 300.617 354.597C299.614 353.967 298.861 353.139 298.359 352.112C297.858 351.086 297.607 349.966 297.607 348.752V337.675H301.457V348.035C301.457 349.225 301.807 350.182 302.507 350.905C303.219 351.617 304.199 351.972 305.447 351.972C306.264 351.972 306.993 351.792 307.634 351.43C308.276 351.057 308.784 350.537 309.157 349.872C309.542 349.207 309.734 348.437 309.734 347.562V337.675H313.584V355H310.119V352.952C309.443 353.769 308.638 354.405 307.704 354.86C306.783 355.303 305.704 355.525 304.467 355.525ZM318.939 355V329.8H322.789V355H318.939ZM328.134 355V329.8H331.984V344.71L338.809 337.675H343.359L337.234 344.307L344.251 355H339.649L334.434 346.81L331.984 349.295V355H328.134Z" fill="white"/>
<path d="M176.322 202.74C180.522 202.74 183.882 204.12 186.402 206.88C188.922 209.58 190.182 213.21 190.182 217.77V248.1C190.182 248.7 189.882 249 189.282 249H184.692C184.092 249 183.792 248.7 183.792 248.1V245.4C183.792 245.28 183.732 245.22 183.612 245.22C183.552 245.16 183.462 245.19 183.342 245.31C181.122 248.25 177.792 249.72 173.352 249.72C170.052 249.72 167.172 248.79 164.712 246.93C162.312 245.01 161.112 241.65 161.112 236.85C161.112 231.75 162.582 228.03 165.522 225.69C168.462 223.29 172.332 222.09 177.132 222.09H183.432C183.672 222.09 183.792 221.97 183.792 221.73V218.22C183.792 215.22 183.102 212.82 181.722 211.02C180.342 209.22 178.482 208.32 176.142 208.32C174.342 208.32 172.782 208.92 171.462 210.12C170.202 211.32 169.452 212.85 169.212 214.71C169.212 215.31 168.912 215.61 168.312 215.61L163.272 215.52C162.972 215.52 162.732 215.43 162.552 215.25C162.432 215.07 162.402 214.86 162.462 214.62C162.762 211.08 164.202 208.23 166.782 206.07C169.362 203.85 172.542 202.74 176.322 202.74ZM174.702 244.14C177.162 244.14 179.292 243.36 181.092 241.8C182.892 240.18 183.792 237.96 183.792 235.14V227.58C183.792 227.34 183.672 227.22 183.432 227.22H177.042C174.162 227.22 171.882 228 170.202 229.56C168.522 231.06 167.682 233.31 167.682 236.31C167.682 238.95 168.312 240.93 169.572 242.25C170.892 243.51 172.602 244.14 174.702 244.14ZM213.229 249.72C208.969 249.72 205.549 248.46 202.969 245.94C200.449 243.42 199.189 240.09 199.189 235.95V216.51C199.189 212.43 200.479 209.13 203.059 206.61C205.639 204.03 209.029 202.74 213.229 202.74C216.049 202.74 218.539 203.31 220.699 204.45C222.859 205.59 224.509 207.12 225.649 209.04C226.849 210.9 227.449 212.97 227.449 215.25V216.15C227.449 216.75 227.149 217.05 226.549 217.05L221.959 217.23C221.359 217.23 221.059 216.93 221.059 216.33V215.7C221.059 213.72 220.309 212.01 218.809 210.57C217.369 209.07 215.509 208.32 213.229 208.32C210.949 208.32 209.089 209.13 207.649 210.75C206.269 212.31 205.579 214.38 205.579 216.96V235.5C205.579 238.08 206.269 240.18 207.649 241.8C209.089 243.36 210.949 244.14 213.229 244.14C215.509 244.14 217.369 243.42 218.809 241.98C220.309 240.48 221.059 238.74 221.059 236.76V236.13C221.059 235.53 221.359 235.23 221.959 235.23L226.549 235.32C227.149 235.32 227.449 235.62 227.449 236.22V237.21C227.449 240.81 226.129 243.81 223.489 246.21C220.909 248.55 217.489 249.72 213.229 249.72ZM252.147 207.33C252.147 207.93 251.847 208.23 251.247 208.23H244.407C244.167 208.23 244.047 208.35 244.047 208.59V236.13C244.047 238.89 244.527 240.81 245.487 241.89C246.447 242.91 247.917 243.39 249.897 243.33H250.797C251.397 243.33 251.697 243.63 251.697 244.23V248.1C251.697 248.7 251.397 249 250.797 249H248.547C245.007 249 242.307 248.25 240.447 246.75C238.647 245.19 237.747 242.28 237.747 238.02V208.59C237.747 208.35 237.627 208.23 237.387 208.23H233.877C233.277 208.23 232.977 207.93 232.977 207.33V204.36C232.977 203.76 233.277 203.46 233.877 203.46H237.387C237.627 203.46 237.747 203.34 237.747 203.1V193.02C237.747 192.42 238.047 192.12 238.647 192.12H243.147C243.747 192.12 244.047 192.42 244.047 193.02V203.1C244.047 203.34 244.167 203.46 244.407 203.46H251.247C251.847 203.46 252.147 203.76 252.147 204.36V207.33ZM263.991 195.18C262.491 195.18 261.261 194.7 260.301 193.74C259.401 192.78 258.951 191.58 258.951 190.14C258.951 188.64 259.401 187.44 260.301 186.54C261.261 185.58 262.491 185.1 263.991 185.1C265.431 185.1 266.601 185.58 267.501 186.54C268.461 187.44 268.941 188.64 268.941 190.14C268.941 191.58 268.461 192.78 267.501 193.74C266.601 194.7 265.431 195.18 263.991 195.18ZM261.741 249C261.141 249 260.841 248.7 260.841 248.1V204.36C260.841 203.76 261.141 203.46 261.741 203.46H266.331C266.931 203.46 267.231 203.76 267.231 204.36V248.1C267.231 248.7 266.931 249 266.331 249H261.741ZM287.752 249C287.212 249 286.882 248.73 286.762 248.19L275.602 204.45L275.512 204.09C275.512 203.67 275.782 203.46 276.322 203.46H281.542C282.082 203.46 282.412 203.73 282.532 204.27L290.272 238.38C290.332 238.56 290.392 238.65 290.452 238.65C290.512 238.65 290.572 238.56 290.632 238.38L298.282 204.27C298.402 203.73 298.732 203.46 299.272 203.46L304.492 203.55C304.792 203.55 305.002 203.64 305.122 203.82C305.302 204 305.332 204.24 305.212 204.54L294.142 248.19C294.082 248.73 293.752 249 293.152 249H287.752ZM339.508 227.76C339.508 228.36 339.208 228.66 338.608 228.66H318.088C317.848 228.66 317.728 228.78 317.728 229.02V235.59C317.728 238.11 318.418 240.18 319.798 241.8C321.238 243.36 323.098 244.14 325.378 244.14C327.298 244.14 328.918 243.57 330.238 242.43C331.618 241.23 332.518 239.7 332.938 237.84C333.118 237.3 333.448 237.03 333.928 237.03L338.428 237.21C338.668 237.21 338.878 237.3 339.058 237.48C339.238 237.66 339.298 237.9 339.238 238.2C338.758 241.74 337.288 244.56 334.828 246.66C332.428 248.7 329.278 249.72 325.378 249.72C321.118 249.72 317.698 248.46 315.118 245.94C312.598 243.42 311.338 240.09 311.338 235.95V216.51C311.338 212.43 312.598 209.13 315.118 206.61C317.698 204.03 321.118 202.74 325.378 202.74C329.698 202.74 333.118 204.03 335.638 206.61C338.218 209.13 339.508 212.43 339.508 216.51V227.76ZM325.378 208.32C323.098 208.32 321.238 209.13 319.798 210.75C318.418 212.31 317.728 214.38 317.728 216.96V222.99C317.728 223.23 317.848 223.35 318.088 223.35H332.848C333.088 223.35 333.208 223.23 333.208 222.99V216.96C333.208 214.38 332.488 212.31 331.048 210.75C329.608 209.13 327.718 208.32 325.378 208.32Z" fill="white"/>
<path d="M161.578 164C161.112 164 160.878 163.767 160.878 163.3V115.7C160.878 115.233 161.112 115 161.578 115H165.148C165.615 115 165.848 115.233 165.848 115.7V143.84C165.848 143.933 165.895 144.003 165.988 144.05C166.082 144.097 166.152 144.073 166.198 143.98L176.698 129C176.885 128.72 177.165 128.58 177.538 128.58H181.178C181.458 128.58 181.645 128.673 181.738 128.86C181.832 129 181.785 129.187 181.598 129.42L174.668 139.36C174.528 139.5 174.505 139.64 174.598 139.78L182.858 163.23L182.928 163.51C182.928 163.837 182.718 164 182.298 164H178.588C178.168 164 177.888 163.813 177.748 163.44L171.518 143.98C171.472 143.7 171.332 143.677 171.098 143.91L165.988 151.19C165.895 151.283 165.848 151.4 165.848 151.54V163.3C165.848 163.767 165.615 164 165.148 164H161.578ZM209.704 147.48C209.704 147.947 209.471 148.18 209.004 148.18H193.044C192.857 148.18 192.764 148.273 192.764 148.46V153.57C192.764 155.53 193.301 157.14 194.374 158.4C195.494 159.613 196.941 160.22 198.714 160.22C200.207 160.22 201.467 159.777 202.494 158.89C203.567 157.957 204.267 156.767 204.594 155.32C204.734 154.9 204.991 154.69 205.364 154.69L208.864 154.83C209.051 154.83 209.214 154.9 209.354 155.04C209.494 155.18 209.541 155.367 209.494 155.6C209.121 158.353 207.977 160.547 206.064 162.18C204.197 163.767 201.747 164.56 198.714 164.56C195.401 164.56 192.741 163.58 190.734 161.62C188.774 159.66 187.794 157.07 187.794 153.85V138.73C187.794 135.557 188.774 132.99 190.734 131.03C192.741 129.023 195.401 128.02 198.714 128.02C202.074 128.02 204.734 129.023 206.694 131.03C208.701 132.99 209.704 135.557 209.704 138.73V147.48ZM198.714 132.36C196.941 132.36 195.494 132.99 194.374 134.25C193.301 135.463 192.764 137.073 192.764 139.08V143.77C192.764 143.957 192.857 144.05 193.044 144.05H204.524C204.711 144.05 204.804 143.957 204.804 143.77V139.08C204.804 137.073 204.244 135.463 203.124 134.25C202.004 132.99 200.534 132.36 198.714 132.36ZM238.21 147.48C238.21 147.947 237.976 148.18 237.51 148.18H221.55C221.363 148.18 221.27 148.273 221.27 148.46V153.57C221.27 155.53 221.806 157.14 222.88 158.4C224 159.613 225.446 160.22 227.22 160.22C228.713 160.22 229.973 159.777 231 158.89C232.073 157.957 232.773 156.767 233.1 155.32C233.24 154.9 233.496 154.69 233.87 154.69L237.37 154.83C237.556 154.83 237.72 154.9 237.86 155.04C238 155.18 238.046 155.367 238 155.6C237.626 158.353 236.483 160.547 234.57 162.18C232.703 163.767 230.253 164.56 227.22 164.56C223.906 164.56 221.246 163.58 219.24 161.62C217.28 159.66 216.3 157.07 216.3 153.85V138.73C216.3 135.557 217.28 132.99 219.24 131.03C221.246 129.023 223.906 128.02 227.22 128.02C230.58 128.02 233.24 129.023 235.2 131.03C237.206 132.99 238.21 135.557 238.21 138.73V147.48ZM227.22 132.36C225.446 132.36 224 132.99 222.88 134.25C221.806 135.463 221.27 137.073 221.27 139.08V143.77C221.27 143.957 221.363 144.05 221.55 144.05H233.03C233.216 144.05 233.31 143.957 233.31 143.77V139.08C233.31 137.073 232.75 135.463 231.63 134.25C230.51 132.99 229.04 132.36 227.22 132.36ZM258.036 128.02C260.976 128.02 263.332 129.023 265.106 131.03C266.879 132.99 267.766 135.557 267.766 138.73V153.85C267.766 157.117 266.879 159.73 265.106 161.69C263.332 163.603 260.976 164.56 258.036 164.56C256.729 164.56 255.492 164.327 254.326 163.86C253.159 163.347 252.132 162.577 251.246 161.55C251.152 161.457 251.059 161.433 250.966 161.48C250.919 161.527 250.896 161.597 250.896 161.69V176.88C250.896 177.347 250.662 177.58 250.196 177.58H246.626C246.159 177.58 245.926 177.347 245.926 176.88V129.28C245.926 128.813 246.159 128.58 246.626 128.58H250.196C250.662 128.58 250.896 128.813 250.896 129.28V130.89C250.896 130.983 250.942 131.053 251.036 131.1C251.129 131.1 251.222 131.053 251.316 130.96C252.156 129.98 253.159 129.257 254.326 128.79C255.539 128.277 256.776 128.02 258.036 128.02ZM262.866 139.08C262.866 137.073 262.282 135.463 261.116 134.25C259.996 132.99 258.549 132.36 256.776 132.36C255.049 132.36 253.626 132.99 252.506 134.25C251.432 135.463 250.896 137.073 250.896 139.08V153.5C250.896 155.507 251.432 157.14 252.506 158.4C253.626 159.613 255.049 160.22 256.776 160.22C258.549 160.22 259.996 159.613 261.116 158.4C262.282 157.14 262.866 155.507 262.866 153.5V139.08ZM278.527 122.14C277.36 122.14 276.404 121.767 275.657 121.02C274.957 120.273 274.607 119.34 274.607 118.22C274.607 117.053 274.957 116.12 275.657 115.42C276.404 114.673 277.36 114.3 278.527 114.3C279.647 114.3 280.557 114.673 281.257 115.42C282.004 116.12 282.377 117.053 282.377 118.22C282.377 119.34 282.004 120.273 281.257 121.02C280.557 121.767 279.647 122.14 278.527 122.14ZM276.777 164C276.31 164 276.077 163.767 276.077 163.3V129.28C276.077 128.813 276.31 128.58 276.777 128.58H280.347C280.814 128.58 281.047 128.813 281.047 129.28V163.3C281.047 163.767 280.814 164 280.347 164H276.777ZM302.678 128.09C305.524 128.09 307.718 129.07 309.258 131.03C310.844 132.99 311.638 135.72 311.638 139.22V163.3C311.638 163.767 311.404 164 310.938 164H307.368C306.901 164 306.668 163.767 306.668 163.3V139.64C306.668 137.353 306.154 135.58 305.128 134.32C304.148 133.06 302.771 132.43 300.998 132.43C299.131 132.43 297.661 133.107 296.588 134.46C295.561 135.813 295.048 137.657 295.048 139.99V163.3C295.048 163.767 294.814 164 294.348 164H290.778C290.311 164 290.078 163.767 290.078 163.3V129.28C290.078 128.813 290.311 128.58 290.778 128.58H294.348C294.814 128.58 295.048 128.813 295.048 129.28V131.52C295.048 131.613 295.094 131.683 295.188 131.73C295.281 131.777 295.351 131.73 295.398 131.59C296.238 130.423 297.288 129.56 298.548 129C299.854 128.393 301.231 128.09 302.678 128.09ZM335.846 129.28C335.846 128.813 336.079 128.58 336.546 128.58H340.116C340.582 128.58 340.816 128.813 340.816 129.28V163.3C340.816 168.293 339.649 172.073 337.316 174.64C335.029 177.253 331.179 178.443 325.766 178.21C325.299 178.163 325.066 177.907 325.066 177.44V174.43C325.066 173.963 325.299 173.73 325.766 173.73C329.499 173.823 332.112 172.96 333.606 171.14C335.099 169.367 335.846 166.613 335.846 162.88V160.78C335.846 160.687 335.799 160.617 335.706 160.57C335.659 160.523 335.589 160.547 335.496 160.64C334.702 161.807 333.676 162.693 332.416 163.3C331.202 163.907 329.896 164.21 328.496 164.21C325.556 164.21 323.222 163.23 321.496 161.27C319.816 159.31 318.976 156.72 318.976 153.5V138.73C318.976 135.463 319.816 132.873 321.496 130.96C323.222 129 325.556 128.02 328.496 128.02C329.896 128.02 331.202 128.323 332.416 128.93C333.676 129.49 334.702 130.353 335.496 131.52C335.589 131.66 335.659 131.73 335.706 131.73C335.799 131.683 335.846 131.59 335.846 131.45V129.28ZM329.966 159.87C331.692 159.87 333.092 159.263 334.166 158.05C335.286 156.79 335.846 155.18 335.846 153.22V139.08C335.846 137.073 335.286 135.463 334.166 134.25C333.092 132.99 331.692 132.36 329.966 132.36C328.192 132.36 326.746 132.99 325.626 134.25C324.506 135.463 323.946 137.073 323.946 139.08V153.22C323.946 155.18 324.506 156.79 325.626 158.05C326.746 159.263 328.192 159.87 329.966 159.87Z" fill="white"/>
</svg>
