<svg width="500" height="500" viewBox="0 0 500 500" fill="none" xmlns="http://www.w3.org/2000/svg">
<rect width="500" height="500" fill="#270000"/>
<path d="M65.8198 311V285.08C65.8198 282.86 66.4573 281.112 67.7323 279.837C69.0223 278.562 70.7998 277.925 73.0648 277.925C73.8898 277.925 74.6398 278.015 75.3148 278.195C76.0048 278.36 76.6423 278.6 77.2273 278.915L76.3048 282.83C75.8698 282.59 75.4498 282.425 75.0448 282.335C74.6398 282.245 74.2423 282.2 73.8523 282.2C72.9373 282.2 72.1873 282.432 71.6023 282.897C71.0323 283.362 70.7473 284.157 70.7473 285.282V288.725H76.5973V292.82H70.7473V311H65.8198ZM61.3423 292.82V288.725H66.4723V292.82H61.3423ZM91.0114 311.675C88.6864 311.675 86.6089 311.143 84.7789 310.077C82.9639 308.997 81.5389 307.565 80.5039 305.78C79.4689 303.98 78.9514 302.007 78.9514 299.862C78.9514 298.272 79.2439 296.772 79.8289 295.362C80.4289 293.937 81.2689 292.677 82.3489 291.582C83.4439 290.487 84.7264 289.625 86.1964 288.995C87.6664 288.365 89.2789 288.05 91.0339 288.05C93.3589 288.05 95.4289 288.59 97.2439 289.67C99.0739 290.735 100.506 292.167 101.541 293.967C102.576 295.752 103.094 297.717 103.094 299.862C103.094 301.437 102.794 302.937 102.194 304.362C101.609 305.787 100.776 307.047 99.6964 308.142C98.6164 309.237 97.3414 310.1 95.8714 310.73C94.4014 311.36 92.7814 311.675 91.0114 311.675ZM91.0114 307.287C92.3914 307.287 93.6139 306.987 94.6789 306.387C95.7589 305.772 96.6064 304.91 97.2214 303.8C97.8364 302.69 98.1439 301.377 98.1439 299.862C98.1439 298.347 97.8364 297.035 97.2214 295.925C96.6064 294.8 95.7589 293.937 94.6789 293.337C93.6139 292.737 92.3914 292.437 91.0114 292.437C89.6314 292.437 88.4014 292.737 87.3214 293.337C86.2564 293.937 85.4164 294.8 84.8014 295.925C84.2014 297.035 83.9014 298.347 83.9014 299.862C83.9014 301.377 84.2089 302.69 84.8239 303.8C85.4389 304.91 86.2789 305.772 87.3439 306.387C88.4239 306.987 89.6464 307.287 91.0114 307.287ZM108.066 311V278.6H113.016V311H108.066ZM119.887 311V278.6H124.837V311H119.887ZM141.856 311.675C139.531 311.675 137.454 311.143 135.624 310.077C133.809 308.997 132.384 307.565 131.349 305.78C130.314 303.98 129.796 302.007 129.796 299.862C129.796 298.272 130.089 296.772 130.674 295.362C131.274 293.937 132.114 292.677 133.194 291.582C134.289 290.487 135.571 289.625 137.041 288.995C138.511 288.365 140.124 288.05 141.879 288.05C144.204 288.05 146.274 288.59 148.089 289.67C149.919 290.735 151.351 292.167 152.386 293.967C153.421 295.752 153.939 297.717 153.939 299.862C153.939 301.437 153.639 302.937 153.039 304.362C152.454 305.787 151.621 307.047 150.541 308.142C149.461 309.237 148.186 310.1 146.716 310.73C145.246 311.36 143.626 311.675 141.856 311.675ZM141.856 307.287C143.236 307.287 144.459 306.987 145.524 306.387C146.604 305.772 147.451 304.91 148.066 303.8C148.681 302.69 148.989 301.377 148.989 299.862C148.989 298.347 148.681 297.035 148.066 295.925C147.451 294.8 146.604 293.937 145.524 293.337C144.459 292.737 143.236 292.437 141.856 292.437C140.476 292.437 139.246 292.737 138.166 293.337C137.101 293.937 136.261 294.8 135.646 295.925C135.046 297.035 134.746 298.347 134.746 299.862C134.746 301.377 135.054 302.69 135.669 303.8C136.284 304.91 137.124 305.772 138.189 306.387C139.269 306.987 140.491 307.287 141.856 307.287ZM162.899 311L155.901 288.725H160.829L165.599 305.285L170.819 288.725H175.656L180.539 305.285L185.399 288.725H190.101L183.104 311H177.996L173.091 295.002L168.006 311H162.899ZM205.229 311V288.725H210.179V291.785C210.779 290.915 211.469 290.21 212.249 289.67C213.029 289.115 213.854 288.71 214.724 288.455C215.594 288.185 216.479 288.05 217.379 288.05C219.194 288.05 220.702 288.447 221.902 289.242C223.117 290.037 223.972 291.057 224.467 292.302C225.577 290.682 226.867 289.572 228.337 288.972C229.807 288.357 231.284 288.05 232.769 288.05C234.824 288.05 236.467 288.455 237.697 289.265C238.927 290.075 239.812 291.117 240.352 292.392C240.907 293.667 241.184 294.98 241.184 296.33V311H236.234V297.77C236.234 296.225 235.807 294.98 234.952 294.035C234.112 293.075 232.882 292.595 231.262 292.595C230.197 292.595 229.244 292.827 228.404 293.292C227.564 293.757 226.897 294.402 226.402 295.227C225.922 296.037 225.682 296.975 225.682 298.04V311H220.732V297.77C220.732 296.225 220.312 294.98 219.472 294.035C218.632 293.075 217.394 292.595 215.759 292.595C214.709 292.595 213.757 292.827 212.902 293.292C212.062 293.757 211.394 294.402 210.899 295.227C210.419 296.037 210.179 296.975 210.179 298.04V311H205.229ZM249.329 321.08C248.519 321.08 247.724 320.99 246.944 320.81C246.164 320.63 245.399 320.323 244.649 319.888L245.774 315.658C246.239 315.958 246.749 316.183 247.304 316.333C247.859 316.483 248.354 316.558 248.789 316.558C249.839 316.558 250.664 316.31 251.264 315.815C251.864 315.32 252.337 314.555 252.682 313.52L253.424 311.36L244.649 288.725H250.072L256.237 306.005L262.244 288.725H267.487L257.857 314.218C257.167 316.003 256.394 317.39 255.539 318.38C254.684 319.385 253.739 320.083 252.704 320.473C251.669 320.878 250.544 321.08 249.329 321.08ZM280.665 321.125C279.69 321.125 278.835 321.028 278.1 320.833C277.365 320.653 276.682 320.398 276.052 320.068L277.2 316.265C277.575 316.445 277.95 316.588 278.325 316.693C278.7 316.813 279.15 316.873 279.675 316.873C280.665 316.873 281.362 316.595 281.767 316.04C282.187 315.485 282.397 314.66 282.397 313.565V288.725H287.347V314.038C287.347 315.478 287.07 316.723 286.515 317.773C285.975 318.838 285.202 319.663 284.197 320.248C283.192 320.833 282.015 321.125 280.665 321.125ZM284.872 284.742C283.987 284.742 283.222 284.457 282.577 283.887C281.932 283.317 281.61 282.567 281.61 281.637C281.61 280.722 281.932 279.98 282.577 279.41C283.222 278.825 283.987 278.532 284.872 278.532C285.757 278.532 286.522 278.825 287.167 279.41C287.812 279.98 288.135 280.722 288.135 281.637C288.135 282.567 287.812 283.317 287.167 283.887C286.522 284.457 285.757 284.742 284.872 284.742ZM304.366 311.675C302.041 311.675 299.963 311.143 298.133 310.077C296.318 308.997 294.893 307.565 293.858 305.78C292.823 303.98 292.306 302.007 292.306 299.862C292.306 298.272 292.598 296.772 293.183 295.362C293.783 293.937 294.623 292.677 295.703 291.582C296.798 290.487 298.081 289.625 299.551 288.995C301.021 288.365 302.633 288.05 304.388 288.05C306.713 288.05 308.783 288.59 310.598 289.67C312.428 290.735 313.861 292.167 314.896 293.967C315.931 295.752 316.448 297.717 316.448 299.862C316.448 301.437 316.148 302.937 315.548 304.362C314.963 305.787 314.131 307.047 313.051 308.142C311.971 309.237 310.696 310.1 309.226 310.73C307.756 311.36 306.136 311.675 304.366 311.675ZM304.366 307.287C305.746 307.287 306.968 306.987 308.033 306.387C309.113 305.772 309.961 304.91 310.576 303.8C311.191 302.69 311.498 301.377 311.498 299.862C311.498 298.347 311.191 297.035 310.576 295.925C309.961 294.8 309.113 293.937 308.033 293.337C306.968 292.737 305.746 292.437 304.366 292.437C302.986 292.437 301.756 292.737 300.676 293.337C299.611 293.937 298.771 294.8 298.156 295.925C297.556 297.035 297.256 298.347 297.256 299.862C297.256 301.377 297.563 302.69 298.178 303.8C298.793 304.91 299.633 305.772 300.698 306.387C301.778 306.987 303.001 307.287 304.366 307.287ZM330.016 311.675C328.021 311.675 326.371 311.278 325.066 310.482C323.776 309.672 322.808 308.607 322.163 307.287C321.518 305.967 321.196 304.527 321.196 302.967V288.725H326.146V302.045C326.146 303.575 326.596 304.805 327.496 305.735C328.411 306.65 329.671 307.107 331.276 307.107C332.326 307.107 333.263 306.875 334.088 306.41C334.913 305.93 335.566 305.262 336.046 304.407C336.541 303.552 336.788 302.562 336.788 301.437V288.725H341.738V311H337.283V308.367C336.413 309.417 335.378 310.235 334.178 310.82C332.993 311.39 331.606 311.675 330.016 311.675ZM348.623 311V288.725H353.573V291.807C354.413 290.412 355.433 289.437 356.633 288.882C357.833 288.312 359.123 288.027 360.503 288.027C360.953 288.027 361.38 288.05 361.785 288.095C362.19 288.14 362.58 288.207 362.955 288.297L362.303 293.405C361.853 293.27 361.395 293.165 360.93 293.09C360.465 293.015 360 292.977 359.535 292.977C357.81 292.977 356.385 293.51 355.26 294.575C354.135 295.625 353.573 297.057 353.573 298.872V311H348.623ZM367.08 311V288.725H372.03V291.56C372.96 290.315 374.04 289.422 375.27 288.882C376.5 288.327 377.775 288.05 379.095 288.05C381.135 288.05 382.822 288.455 384.157 289.265C385.492 290.075 386.482 291.117 387.127 292.392C387.787 293.667 388.117 294.98 388.117 296.33V311H383.167V297.86C383.167 296.27 382.687 294.995 381.727 294.035C380.782 293.075 379.462 292.595 377.767 292.595C376.657 292.595 375.667 292.842 374.797 293.337C373.942 293.832 373.267 294.522 372.772 295.407C372.277 296.277 372.03 297.297 372.03 298.467V311H367.08ZM404.935 311.675C402.535 311.675 400.428 311.188 398.613 310.212C396.798 309.222 395.38 307.842 394.36 306.072C393.355 304.302 392.853 302.247 392.853 299.907C392.853 298.197 393.145 296.622 393.73 295.182C394.315 293.727 395.14 292.467 396.205 291.402C397.27 290.337 398.515 289.512 399.94 288.927C401.38 288.342 402.948 288.05 404.643 288.05C406.488 288.05 408.13 288.38 409.57 289.04C411.01 289.685 412.203 290.592 413.148 291.762C414.108 292.932 414.783 294.305 415.173 295.88C415.578 297.44 415.645 299.135 415.375 300.965H397.6C397.57 302.3 397.863 303.47 398.478 304.475C399.093 305.465 399.97 306.237 401.11 306.792C402.265 307.347 403.623 307.625 405.183 307.625C406.443 307.625 407.658 307.437 408.828 307.062C410.013 306.672 411.085 306.102 412.045 305.352L413.958 308.907C413.238 309.492 412.368 309.995 411.348 310.415C410.328 310.82 409.263 311.128 408.153 311.338C407.043 311.563 405.97 311.675 404.935 311.675ZM397.893 297.32H410.515C410.47 295.64 409.93 294.32 408.895 293.36C407.875 292.4 406.42 291.92 404.53 291.92C402.7 291.92 401.178 292.4 399.963 293.36C398.763 294.32 398.073 295.64 397.893 297.32ZM422.21 321.08C421.4 321.08 420.605 320.99 419.825 320.81C419.045 320.63 418.28 320.323 417.53 319.888L418.655 315.658C419.12 315.958 419.63 316.183 420.185 316.333C420.74 316.483 421.235 316.558 421.67 316.558C422.72 316.558 423.545 316.31 424.145 315.815C424.745 315.32 425.217 314.555 425.562 313.52L426.305 311.36L417.53 288.725H422.952L429.117 306.005L435.125 288.725H440.367L430.737 314.218C430.047 316.003 429.275 317.39 428.42 318.38C427.565 319.385 426.62 320.083 425.585 320.473C424.55 320.878 423.425 321.08 422.21 321.08ZM202.352 355.525C200.66 355.525 199.307 355.035 198.292 354.055C197.277 353.075 196.77 351.576 196.77 349.557V332.617H200.62V337.675H205.432V340.86H200.62V348.717C200.62 349.931 200.847 350.788 201.302 351.29C201.769 351.78 202.422 352.025 203.262 352.025C203.67 352.025 204.055 351.978 204.417 351.885C204.779 351.792 205.105 351.669 205.397 351.517L206.08 354.632C205.578 354.889 205 355.099 204.347 355.263C203.705 355.438 203.04 355.525 202.352 355.525ZM192.972 340.86V337.675H197.277V340.86H192.972ZM213.384 355L207.941 337.675H211.774L215.484 350.555L219.544 337.675H223.306L227.104 350.555L230.884 337.675H234.541L229.099 355H225.126L221.311 342.557L217.356 355H213.384ZM237.728 355V337.675H241.578V355H237.728ZM239.653 334.577C238.965 334.577 238.37 334.356 237.868 333.912C237.367 333.469 237.116 332.886 237.116 332.162C237.116 331.451 237.367 330.873 237.868 330.43C238.37 329.975 238.965 329.747 239.653 329.747C240.342 329.747 240.937 329.975 241.438 330.43C241.94 330.873 242.191 331.451 242.191 332.162C242.191 332.886 241.94 333.469 241.438 333.912C240.937 334.356 240.342 334.577 239.653 334.577ZM254.203 355.525C252.511 355.525 251.158 355.035 250.143 354.055C249.128 353.075 248.62 351.576 248.62 349.557V332.617H252.47V337.675H257.283V340.86H252.47V348.717C252.47 349.931 252.698 350.788 253.153 351.29C253.619 351.78 254.273 352.025 255.113 352.025C255.521 352.025 255.906 351.978 256.268 351.885C256.629 351.792 256.956 351.669 257.248 351.517L257.93 354.632C257.428 354.889 256.851 355.099 256.198 355.263C255.556 355.438 254.891 355.525 254.203 355.525ZM244.823 340.86V337.675H249.128V340.86H244.823ZM269.242 355.525C267.55 355.525 266.197 355.035 265.182 354.055C264.167 353.075 263.659 351.576 263.659 349.557V332.617H267.509V337.675H272.322V340.86H267.509V348.717C267.509 349.931 267.737 350.788 268.192 351.29C268.658 351.78 269.312 352.025 270.152 352.025C270.56 352.025 270.945 351.978 271.307 351.885C271.668 351.792 271.995 351.669 272.287 351.517L272.969 354.632C272.468 354.889 271.89 355.099 271.237 355.263C270.595 355.438 269.93 355.525 269.242 355.525ZM259.862 340.86V337.675H264.167V340.86H259.862ZM284.808 355.525C282.942 355.525 281.302 355.146 279.891 354.387C278.479 353.617 277.377 352.544 276.583 351.167C275.802 349.791 275.411 348.192 275.411 346.372C275.411 345.042 275.638 343.817 276.093 342.697C276.548 341.566 277.19 340.586 278.018 339.757C278.847 338.929 279.815 338.287 280.923 337.832C282.043 337.377 283.262 337.15 284.581 337.15C286.016 337.15 287.293 337.407 288.413 337.92C289.533 338.422 290.461 339.127 291.196 340.037C291.942 340.947 292.467 342.015 292.771 343.24C293.086 344.453 293.138 345.772 292.928 347.195H279.103C279.08 348.233 279.307 349.143 279.786 349.925C280.264 350.695 280.947 351.296 281.833 351.727C282.732 352.159 283.787 352.375 285.001 352.375C285.981 352.375 286.926 352.229 287.836 351.937C288.757 351.634 289.592 351.191 290.338 350.607L291.826 353.372C291.266 353.827 290.589 354.218 289.796 354.545C289.002 354.86 288.174 355.099 287.311 355.263C286.447 355.438 285.613 355.525 284.808 355.525ZM279.331 344.36H289.148C289.113 343.053 288.693 342.027 287.888 341.28C287.095 340.533 285.963 340.16 284.493 340.16C283.07 340.16 281.886 340.533 280.941 341.28C280.007 342.027 279.471 343.053 279.331 344.36ZM296.928 355V337.675H300.778V340.072C301.431 338.987 302.224 338.229 303.158 337.797C304.091 337.354 305.094 337.132 306.168 337.132C306.518 337.132 306.85 337.15 307.165 337.185C307.48 337.22 307.783 337.272 308.075 337.342L307.568 341.315C307.218 341.21 306.862 341.128 306.5 341.07C306.138 341.012 305.777 340.982 305.415 340.982C304.073 340.982 302.965 341.397 302.09 342.225C301.215 343.042 300.778 344.156 300.778 345.567V355H296.928Z" fill="white"/>
<path d="M192.395 357.188H308.617V358.062H192.395V357.188Z" fill="white"/>
<path d="M117.125 133.906C119.562 133.906 121.635 134.323 123.344 135.156C125.052 135.99 126.333 137.167 127.188 138.688C128.062 140.188 128.5 141.948 128.5 143.969C128.5 145.552 128.135 146.958 127.406 148.188C126.698 149.396 125.677 150.385 124.344 151.156C126.552 151.865 128.24 153.01 129.406 154.594C130.594 156.156 131.188 158.094 131.188 160.406C131.188 162.594 130.719 164.479 129.781 166.062C128.844 167.646 127.479 168.865 125.688 169.719C123.896 170.573 121.729 171 119.188 171H101.469C100.76 171 100.25 170.844 99.9375 170.531C99.6458 170.198 99.5 169.646 99.5 168.875C99.5 168.104 99.6458 167.562 99.9375 167.25C100.25 166.917 100.76 166.75 101.469 166.75H105.281V138.156H101.469C100.76 138.156 100.25 138 99.9375 137.688C99.6458 137.354 99.5 136.802 99.5 136.031C99.5 135.26 99.6458 134.719 99.9375 134.406C100.25 134.073 100.76 133.906 101.469 133.906H117.125ZM109.969 149.719H116.438C118.833 149.719 120.646 149.219 121.875 148.219C123.104 147.219 123.719 145.802 123.719 143.969C123.719 142.052 123.115 140.604 121.906 139.625C120.698 138.646 118.875 138.156 116.438 138.156H109.969V149.719ZM109.969 166.75H118.25C120.812 166.75 122.781 166.198 124.156 165.094C125.552 163.99 126.25 162.427 126.25 160.406C126.25 156.115 123.635 153.969 118.406 153.969H109.969V166.75ZM164.625 142.125C165.333 142.125 165.833 142.292 166.125 142.625C166.438 142.938 166.594 143.479 166.594 144.25V166.75H169.156C169.865 166.75 170.365 166.917 170.656 167.25C170.969 167.562 171.125 168.104 171.125 168.875C171.125 169.646 170.969 170.198 170.656 170.531C170.365 170.844 169.865 171 169.156 171H164.188C163.479 171 162.969 170.844 162.656 170.531C162.365 170.219 162.219 169.677 162.219 168.906V165.125C160.844 167.25 159.229 168.875 157.375 170C155.542 171.125 153.562 171.688 151.438 171.688C149.542 171.688 147.896 171.281 146.5 170.469C145.104 169.635 144.031 168.448 143.281 166.906C142.531 165.365 142.156 163.562 142.156 161.5V146.375H139.594C138.885 146.375 138.375 146.219 138.062 145.906C137.771 145.573 137.625 145.021 137.625 144.25C137.625 143.479 137.771 142.938 138.062 142.625C138.375 142.292 138.885 142.125 139.594 142.125H144.875C145.583 142.125 146.083 142.292 146.375 142.625C146.688 142.938 146.844 143.479 146.844 144.25V161.031C146.844 162.885 147.271 164.354 148.125 165.438C148.979 166.521 150.24 167.062 151.906 167.062C153.677 167.062 155.323 166.552 156.844 165.531C158.385 164.51 159.615 163.104 160.531 161.312C161.448 159.521 161.906 157.521 161.906 155.312V146.375H157.469C156.76 146.375 156.25 146.219 155.938 145.906C155.646 145.573 155.5 145.021 155.5 144.25C155.5 143.479 155.646 142.938 155.938 142.625C156.25 142.292 156.76 142.125 157.469 142.125H164.625ZM194.062 142.125C194.771 142.125 195.271 142.292 195.562 142.625C195.875 142.938 196.031 143.479 196.031 144.25V166.75H206.062C206.771 166.75 207.271 166.917 207.562 167.25C207.875 167.562 208.031 168.104 208.031 168.875C208.031 169.646 207.875 170.198 207.562 170.531C207.271 170.844 206.771 171 206.062 171H181.562C180.854 171 180.344 170.844 180.031 170.531C179.74 170.198 179.594 169.646 179.594 168.875C179.594 168.104 179.74 167.562 180.031 167.25C180.344 166.917 180.854 166.75 181.562 166.75H191.344V146.375H183.438C182.729 146.375 182.219 146.219 181.906 145.906C181.615 145.573 181.469 145.021 181.469 144.25C181.469 143.479 181.615 142.938 181.906 142.625C182.219 142.292 182.729 142.125 183.438 142.125H194.062ZM193.062 128.406C194.208 128.406 194.99 128.562 195.406 128.875C195.823 129.167 196.031 129.688 196.031 130.438V134.5C196.031 135.25 195.823 135.781 195.406 136.094C194.99 136.385 194.208 136.531 193.062 136.531C191.917 136.531 191.135 136.385 190.719 136.094C190.302 135.781 190.094 135.25 190.094 134.5V130.438C190.094 129.688 190.302 129.167 190.719 128.875C191.135 128.562 191.917 128.406 193.062 128.406ZM232.125 130C232.833 130 233.333 130.167 233.625 130.5C233.938 130.812 234.094 131.354 234.094 132.125V166.75H244.125C244.833 166.75 245.333 166.917 245.625 167.25C245.938 167.562 246.094 168.104 246.094 168.875C246.094 169.646 245.938 170.198 245.625 170.531C245.333 170.844 244.833 171 244.125 171H219.625C218.917 171 218.406 170.844 218.094 170.531C217.802 170.198 217.656 169.646 217.656 168.875C217.656 168.104 217.802 167.562 218.094 167.25C218.406 166.917 218.917 166.75 219.625 166.75H229.406V134.25H220.875C220.167 134.25 219.656 134.094 219.344 133.781C219.052 133.448 218.906 132.896 218.906 132.125C218.906 131.354 219.052 130.812 219.344 130.5C219.656 130.167 220.167 130 220.875 130H232.125ZM280.594 130C281.302 130 281.802 130.167 282.094 130.5C282.406 130.812 282.562 131.354 282.562 132.125V166.75H285.125C285.833 166.75 286.333 166.917 286.625 167.25C286.938 167.562 287.094 168.104 287.094 168.875C287.094 169.646 286.938 170.198 286.625 170.531C286.333 170.844 285.833 171 285.125 171H280.156C279.448 171 278.938 170.844 278.625 170.531C278.333 170.198 278.188 169.646 278.188 168.875V166.375C276.875 168.083 275.354 169.396 273.625 170.312C271.896 171.229 270.01 171.688 267.969 171.688C265.385 171.688 263.073 171.083 261.031 169.875C258.99 168.646 257.385 166.896 256.219 164.625C255.052 162.333 254.469 159.646 254.469 156.562C254.469 153.479 255.052 150.802 256.219 148.531C257.385 146.24 258.99 144.49 261.031 143.281C263.073 142.052 265.385 141.438 267.969 141.438C271.885 141.438 275.188 143.156 277.875 146.594V134.25H272.812C272.104 134.25 271.594 134.094 271.281 133.781C270.99 133.448 270.844 132.896 270.844 132.125C270.844 131.354 270.99 130.812 271.281 130.5C271.594 130.167 272.104 130 272.812 130H280.594ZM268.281 146.062C266.427 146.062 264.833 146.51 263.5 147.406C262.167 148.281 261.146 149.51 260.438 151.094C259.75 152.677 259.406 154.5 259.406 156.562C259.406 158.625 259.75 160.448 260.438 162.031C261.146 163.615 262.167 164.854 263.5 165.75C264.833 166.625 266.427 167.062 268.281 167.062C270.135 167.062 271.781 166.646 273.219 165.812C274.677 164.979 275.812 163.771 276.625 162.188C277.458 160.604 277.875 158.729 277.875 156.562C277.875 154.396 277.458 152.521 276.625 150.938C275.812 149.354 274.677 148.146 273.219 147.312C271.781 146.479 270.135 146.062 268.281 146.062ZM309.188 142.125C309.896 142.125 310.396 142.292 310.688 142.625C311 142.938 311.156 143.479 311.156 144.25V166.75H321.188C321.896 166.75 322.396 166.917 322.688 167.25C323 167.562 323.156 168.104 323.156 168.875C323.156 169.646 323 170.198 322.688 170.531C322.396 170.844 321.896 171 321.188 171H296.688C295.979 171 295.469 170.844 295.156 170.531C294.865 170.198 294.719 169.646 294.719 168.875C294.719 168.104 294.865 167.562 295.156 167.25C295.469 166.917 295.979 166.75 296.688 166.75H306.469V146.375H298.562C297.854 146.375 297.344 146.219 297.031 145.906C296.74 145.573 296.594 145.021 296.594 144.25C296.594 143.479 296.74 142.938 297.031 142.625C297.344 142.292 297.854 142.125 298.562 142.125H309.188ZM308.188 128.406C309.333 128.406 310.115 128.562 310.531 128.875C310.948 129.167 311.156 129.688 311.156 130.438V134.5C311.156 135.25 310.948 135.781 310.531 136.094C310.115 136.385 309.333 136.531 308.188 136.531C307.042 136.531 306.26 136.385 305.844 136.094C305.427 135.781 305.219 135.25 305.219 134.5V130.438C305.219 129.688 305.427 129.167 305.844 128.875C306.26 128.562 307.042 128.406 308.188 128.406ZM349.969 141.438C351.865 141.438 353.51 141.854 354.906 142.688C356.302 143.5 357.375 144.677 358.125 146.219C358.875 147.76 359.25 149.562 359.25 151.625V166.75H361.812C362.521 166.75 363.021 166.917 363.312 167.25C363.625 167.562 363.781 168.104 363.781 168.875C363.781 169.646 363.625 170.198 363.312 170.531C363.021 170.844 362.521 171 361.812 171H351.688C350.979 171 350.469 170.844 350.156 170.531C349.865 170.198 349.719 169.646 349.719 168.875C349.719 168.104 349.865 167.562 350.156 167.25C350.469 166.917 350.979 166.75 351.688 166.75H354.562V152.094C354.562 150.24 354.135 148.771 353.281 147.688C352.427 146.604 351.167 146.062 349.5 146.062C347.729 146.062 346.073 146.573 344.531 147.594C343.01 148.615 341.792 150.021 340.875 151.812C339.958 153.604 339.5 155.604 339.5 157.812V166.75H342.375C343.083 166.75 343.583 166.917 343.875 167.25C344.188 167.562 344.344 168.104 344.344 168.875C344.344 169.646 344.188 170.198 343.875 170.531C343.583 170.844 343.083 171 342.375 171H332.25C331.542 171 331.031 170.844 330.719 170.531C330.427 170.198 330.281 169.646 330.281 168.875C330.281 168.104 330.427 167.562 330.719 167.25C331.031 166.917 331.542 166.75 332.25 166.75H334.812V146.375H331.625C330.917 146.375 330.406 146.219 330.094 145.906C329.802 145.573 329.656 145.021 329.656 144.25C329.656 143.479 329.802 142.938 330.094 142.625C330.406 142.292 330.917 142.125 331.625 142.125H337.219C337.927 142.125 338.427 142.292 338.719 142.625C339.031 142.938 339.188 143.479 339.188 144.25V148C340.562 145.875 342.167 144.25 344 143.125C345.854 142 347.844 141.438 349.969 141.438ZM383.094 141.438C385.135 141.438 387.021 141.896 388.75 142.812C390.479 143.729 392 145.042 393.312 146.75V144.25C393.312 143.479 393.458 142.938 393.75 142.625C394.062 142.292 394.573 142.125 395.281 142.125H400.25C400.958 142.125 401.458 142.292 401.75 142.625C402.062 142.938 402.219 143.479 402.219 144.25C402.219 145.021 402.062 145.573 401.75 145.906C401.458 146.219 400.958 146.375 400.25 146.375H397.688V171.938C397.688 174.417 397.156 176.542 396.094 178.312C395.052 180.104 393.531 181.469 391.531 182.406C389.531 183.344 387.125 183.812 384.312 183.812C382.312 183.812 380.292 183.635 378.25 183.281C376.208 182.948 374.302 182.458 372.531 181.812C371.719 181.521 371.312 180.969 371.312 180.156C371.312 179.823 371.396 179.406 371.562 178.906C371.938 177.76 372.531 177.188 373.344 177.188C373.573 177.188 373.802 177.229 374.031 177.312C375.656 177.896 377.365 178.354 379.156 178.688C380.948 179.021 382.667 179.188 384.312 179.188C387.188 179.188 389.354 178.5 390.812 177.125C392.271 175.771 393 173.906 393 171.531V165.25C390.417 168.5 387.115 170.125 383.094 170.125C380.51 170.125 378.198 169.552 376.156 168.406C374.115 167.24 372.51 165.573 371.344 163.406C370.177 161.24 369.594 158.698 369.594 155.781C369.594 152.865 370.177 150.323 371.344 148.156C372.51 145.99 374.115 144.333 376.156 143.188C378.198 142.021 380.51 141.438 383.094 141.438ZM383.406 146.062C381.552 146.062 379.958 146.479 378.625 147.312C377.292 148.125 376.271 149.271 375.562 150.75C374.875 152.208 374.531 153.885 374.531 155.781C374.531 157.677 374.875 159.365 375.562 160.844C376.271 162.302 377.292 163.448 378.625 164.281C379.958 165.094 381.552 165.5 383.406 165.5C385.26 165.5 386.906 165.115 388.344 164.344C389.802 163.573 390.938 162.458 391.75 161C392.583 159.521 393 157.781 393 155.781C393 153.781 392.583 152.052 391.75 150.594C390.938 149.115 389.802 147.99 388.344 147.219C386.906 146.448 385.26 146.062 383.406 146.062ZM98.125 214.125C98.8333 214.125 99.3333 214.292 99.625 214.625C99.9375 214.938 100.094 215.479 100.094 216.25V238.75H110.125C110.833 238.75 111.333 238.917 111.625 239.25C111.938 239.562 112.094 240.104 112.094 240.875C112.094 241.646 111.938 242.198 111.625 242.531C111.333 242.844 110.833 243 110.125 243H85.625C84.9167 243 84.4062 242.844 84.0938 242.531C83.8021 242.198 83.6562 241.646 83.6562 240.875C83.6562 240.104 83.8021 239.562 84.0938 239.25C84.4062 238.917 84.9167 238.75 85.625 238.75H95.4062V218.375H87.5C86.7917 218.375 86.2812 218.219 85.9688 217.906C85.6771 217.573 85.5312 217.021 85.5312 216.25C85.5312 215.479 85.6771 214.938 85.9688 214.625C86.2812 214.292 86.7917 214.125 87.5 214.125H98.125ZM97.125 200.406C98.2708 200.406 99.0521 200.562 99.4688 200.875C99.8854 201.167 100.094 201.688 100.094 202.438V206.5C100.094 207.25 99.8854 207.781 99.4688 208.094C99.0521 208.385 98.2708 208.531 97.125 208.531C95.9792 208.531 95.1979 208.385 94.7812 208.094C94.3646 207.781 94.1562 207.25 94.1562 206.5V202.438C94.1562 201.688 94.3646 201.167 94.7812 200.875C95.1979 200.562 95.9792 200.406 97.125 200.406ZM138.906 213.438C140.802 213.438 142.448 213.854 143.844 214.688C145.24 215.5 146.312 216.677 147.062 218.219C147.812 219.76 148.188 221.562 148.188 223.625V238.75H150.75C151.458 238.75 151.958 238.917 152.25 239.25C152.562 239.562 152.719 240.104 152.719 240.875C152.719 241.646 152.562 242.198 152.25 242.531C151.958 242.844 151.458 243 150.75 243H140.625C139.917 243 139.406 242.844 139.094 242.531C138.802 242.198 138.656 241.646 138.656 240.875C138.656 240.104 138.802 239.562 139.094 239.25C139.406 238.917 139.917 238.75 140.625 238.75H143.5V224.094C143.5 222.24 143.073 220.771 142.219 219.688C141.365 218.604 140.104 218.062 138.438 218.062C136.667 218.062 135.01 218.573 133.469 219.594C131.948 220.615 130.729 222.021 129.812 223.812C128.896 225.604 128.438 227.604 128.438 229.812V238.75H131.312C132.021 238.75 132.521 238.917 132.812 239.25C133.125 239.562 133.281 240.104 133.281 240.875C133.281 241.646 133.125 242.198 132.812 242.531C132.521 242.844 132.021 243 131.312 243H121.188C120.479 243 119.969 242.844 119.656 242.531C119.365 242.198 119.219 241.646 119.219 240.875C119.219 240.104 119.365 239.562 119.656 239.25C119.969 238.917 120.479 238.75 121.188 238.75H123.75V218.375H120.562C119.854 218.375 119.344 218.219 119.031 217.906C118.74 217.573 118.594 217.021 118.594 216.25C118.594 215.479 118.74 214.938 119.031 214.625C119.344 214.292 119.854 214.125 120.562 214.125H126.156C126.865 214.125 127.365 214.292 127.656 214.625C127.969 214.938 128.125 215.479 128.125 216.25V220C129.5 217.875 131.104 216.25 132.938 215.125C134.792 214 136.781 213.438 138.906 213.438ZM214.5 205.906C217.271 205.906 219.646 206.396 221.625 207.375C223.604 208.354 225.104 209.74 226.125 211.531C227.167 213.323 227.688 215.396 227.688 217.75C227.688 220.104 227.167 222.167 226.125 223.938C225.104 225.688 223.604 227.052 221.625 228.031C219.646 228.99 217.271 229.469 214.5 229.469H207.156V238.75H214.656C215.365 238.75 215.865 238.917 216.156 239.25C216.469 239.562 216.625 240.104 216.625 240.875C216.625 241.646 216.469 242.198 216.156 242.531C215.865 242.844 215.365 243 214.656 243H197.406C196.698 243 196.188 242.844 195.875 242.531C195.583 242.198 195.438 241.646 195.438 240.875C195.438 240.104 195.583 239.562 195.875 239.25C196.188 238.917 196.698 238.75 197.406 238.75H202.469V210.156H197.406C196.698 210.156 196.188 210 195.875 209.688C195.583 209.354 195.438 208.802 195.438 208.031C195.438 207.26 195.583 206.719 195.875 206.406C196.188 206.073 196.698 205.906 197.406 205.906H214.5ZM207.156 225.219H213.844C216.74 225.219 218.948 224.562 220.469 223.25C221.99 221.938 222.75 220.104 222.75 217.75C222.75 215.354 221.979 213.49 220.438 212.156C218.917 210.823 216.719 210.156 213.844 210.156H207.156V225.219ZM260.562 214.125C261.271 214.125 261.771 214.292 262.062 214.625C262.375 214.938 262.531 215.479 262.531 216.25V238.75H265.094C265.802 238.75 266.302 238.917 266.594 239.25C266.906 239.562 267.062 240.104 267.062 240.875C267.062 241.646 266.906 242.198 266.594 242.531C266.302 242.844 265.802 243 265.094 243H260.125C259.417 243 258.906 242.844 258.594 242.531C258.302 242.219 258.156 241.677 258.156 240.906V237.125C256.781 239.25 255.167 240.875 253.312 242C251.479 243.125 249.5 243.688 247.375 243.688C245.479 243.688 243.833 243.281 242.438 242.469C241.042 241.635 239.969 240.448 239.219 238.906C238.469 237.365 238.094 235.562 238.094 233.5V218.375H235.531C234.823 218.375 234.312 218.219 234 217.906C233.708 217.573 233.562 217.021 233.562 216.25C233.562 215.479 233.708 214.938 234 214.625C234.312 214.292 234.823 214.125 235.531 214.125H240.812C241.521 214.125 242.021 214.292 242.312 214.625C242.625 214.938 242.781 215.479 242.781 216.25V233.031C242.781 234.885 243.208 236.354 244.062 237.438C244.917 238.521 246.177 239.062 247.844 239.062C249.615 239.062 251.26 238.552 252.781 237.531C254.323 236.51 255.552 235.104 256.469 233.312C257.385 231.521 257.844 229.521 257.844 227.312V218.375H253.406C252.698 218.375 252.188 218.219 251.875 217.906C251.583 217.573 251.438 217.021 251.438 216.25C251.438 215.479 251.583 214.938 251.875 214.625C252.188 214.292 252.698 214.125 253.406 214.125H260.562ZM278.719 202C279.427 202 279.927 202.167 280.219 202.5C280.531 202.812 280.688 203.354 280.688 204.125V218.594C283.375 215.156 286.677 213.438 290.594 213.438C293.177 213.438 295.49 214.052 297.531 215.281C299.573 216.49 301.177 218.24 302.344 220.531C303.51 222.802 304.094 225.479 304.094 228.562C304.094 231.646 303.51 234.333 302.344 236.625C301.177 238.896 299.573 240.646 297.531 241.875C295.49 243.083 293.177 243.688 290.594 243.688C288.552 243.688 286.667 243.229 284.938 242.312C283.208 241.396 281.688 240.083 280.375 238.375V240.875C280.375 241.646 280.219 242.198 279.906 242.531C279.615 242.844 279.115 243 278.406 243H273.438C272.729 243 272.219 242.844 271.906 242.531C271.615 242.198 271.469 241.646 271.469 240.875C271.469 240.104 271.615 239.562 271.906 239.25C272.219 238.917 272.729 238.75 273.438 238.75H276V206.25H272.812C272.104 206.25 271.594 206.094 271.281 205.781C270.99 205.448 270.844 204.896 270.844 204.125C270.844 203.354 270.99 202.812 271.281 202.5C271.594 202.167 272.104 202 272.812 202H278.719ZM290.281 218.062C288.427 218.062 286.771 218.479 285.312 219.312C283.875 220.146 282.74 221.354 281.906 222.938C281.094 224.521 280.688 226.396 280.688 228.562C280.688 230.729 281.094 232.604 281.906 234.188C282.74 235.771 283.875 236.979 285.312 237.812C286.771 238.646 288.427 239.062 290.281 239.062C292.135 239.062 293.729 238.625 295.062 237.75C296.396 236.854 297.406 235.615 298.094 234.031C298.802 232.448 299.156 230.625 299.156 228.562C299.156 226.5 298.802 224.677 298.094 223.094C297.406 221.51 296.396 220.281 295.062 219.406C293.729 218.51 292.135 218.062 290.281 218.062ZM328.062 202C328.771 202 329.271 202.167 329.562 202.5C329.875 202.812 330.031 203.354 330.031 204.125V238.75H340.062C340.771 238.75 341.271 238.917 341.562 239.25C341.875 239.562 342.031 240.104 342.031 240.875C342.031 241.646 341.875 242.198 341.562 242.531C341.271 242.844 340.771 243 340.062 243H315.562C314.854 243 314.344 242.844 314.031 242.531C313.74 242.198 313.594 241.646 313.594 240.875C313.594 240.104 313.74 239.562 314.031 239.25C314.344 238.917 314.854 238.75 315.562 238.75H325.344V206.25H316.812C316.104 206.25 315.594 206.094 315.281 205.781C314.99 205.448 314.844 204.896 314.844 204.125C314.844 203.354 314.99 202.812 315.281 202.5C315.594 202.167 316.104 202 316.812 202H328.062ZM366.75 214.125C367.458 214.125 367.958 214.292 368.25 214.625C368.562 214.938 368.719 215.479 368.719 216.25V238.75H378.75C379.458 238.75 379.958 238.917 380.25 239.25C380.562 239.562 380.719 240.104 380.719 240.875C380.719 241.646 380.562 242.198 380.25 242.531C379.958 242.844 379.458 243 378.75 243H354.25C353.542 243 353.031 242.844 352.719 242.531C352.427 242.198 352.281 241.646 352.281 240.875C352.281 240.104 352.427 239.562 352.719 239.25C353.031 238.917 353.542 238.75 354.25 238.75H364.031V218.375H356.125C355.417 218.375 354.906 218.219 354.594 217.906C354.302 217.573 354.156 217.021 354.156 216.25C354.156 215.479 354.302 214.938 354.594 214.625C354.906 214.292 355.417 214.125 356.125 214.125H366.75ZM365.75 200.406C366.896 200.406 367.677 200.562 368.094 200.875C368.51 201.167 368.719 201.688 368.719 202.438V206.5C368.719 207.25 368.51 207.781 368.094 208.094C367.677 208.385 366.896 208.531 365.75 208.531C364.604 208.531 363.823 208.385 363.406 208.094C362.99 207.781 362.781 207.25 362.781 206.5V202.438C362.781 201.688 362.99 201.167 363.406 200.875C363.823 200.562 364.604 200.406 365.75 200.406ZM415.25 213.438C416.104 213.438 416.708 213.594 417.062 213.906C417.417 214.219 417.594 214.74 417.594 215.469V224.531C417.594 225.26 417.417 225.781 417.062 226.094C416.708 226.406 416.104 226.562 415.25 226.562C414.396 226.562 413.792 226.406 413.438 226.094C413.083 225.781 412.906 225.26 412.906 224.531C412.906 223.26 412.573 222.135 411.906 221.156C411.24 220.177 410.24 219.417 408.906 218.875C407.594 218.333 406.01 218.062 404.156 218.062C402.156 218.062 400.365 218.51 398.781 219.406C397.198 220.302 395.958 221.552 395.062 223.156C394.167 224.76 393.719 226.562 393.719 228.562C393.719 230.583 394.135 232.396 394.969 234C395.823 235.583 397.01 236.823 398.531 237.719C400.073 238.615 401.844 239.062 403.844 239.062C405.76 239.062 407.615 238.771 409.406 238.188C411.219 237.583 412.865 236.719 414.344 235.594C414.781 235.26 415.188 235.094 415.562 235.094C416.167 235.094 416.729 235.521 417.25 236.375C417.562 236.896 417.719 237.396 417.719 237.875C417.719 238.604 417.385 239.208 416.719 239.688C415.052 240.938 413.083 241.917 410.812 242.625C408.542 243.333 406.219 243.688 403.844 243.688C400.865 243.688 398.229 243.031 395.938 241.719C393.667 240.406 391.906 238.604 390.656 236.312C389.406 234.021 388.781 231.438 388.781 228.562C388.781 225.688 389.417 223.104 390.688 220.812C391.958 218.521 393.729 216.719 396 215.406C398.292 214.094 400.906 213.438 403.844 213.438C405.698 213.438 407.396 213.781 408.938 214.469C410.5 215.135 411.823 216.094 412.906 217.344V215.469C412.906 214.74 413.083 214.219 413.438 213.906C413.792 213.594 414.396 213.438 415.25 213.438Z" fill="white"/>
</svg>
