<svg width="500" height="500" viewBox="0 0 500 500" fill="none" xmlns="http://www.w3.org/2000/svg">
<rect width="500" height="500" fill="black"/>
<path d="M74.3139 311L65.9889 288.725H71.4114L77.5764 306.747H76.8339L82.8864 288.725H88.1514L79.9839 311H74.3139ZM92.2457 311V288.725H97.1957V311H92.2457ZM94.7207 284.742C93.8357 284.742 93.0707 284.457 92.4257 283.887C91.7807 283.317 91.4582 282.567 91.4582 281.637C91.4582 280.722 91.7807 279.98 92.4257 279.41C93.0707 278.825 93.8357 278.532 94.7207 278.532C95.6057 278.532 96.3707 278.825 97.0157 279.41C97.6607 279.98 97.9832 280.722 97.9832 281.637C97.9832 282.567 97.6607 283.317 97.0157 283.887C96.3707 284.457 95.6057 284.742 94.7207 284.742ZM113.315 311.675C111.14 311.675 109.212 311.165 107.532 310.145C105.852 309.11 104.532 307.707 103.572 305.937C102.627 304.152 102.155 302.127 102.155 299.862C102.155 298.227 102.425 296.697 102.965 295.272C103.505 293.832 104.27 292.572 105.26 291.492C106.265 290.412 107.45 289.572 108.815 288.972C110.195 288.357 111.717 288.05 113.382 288.05C115.407 288.05 117.162 288.455 118.647 289.265C120.132 290.075 121.37 291.2 122.36 292.64L121.325 293.742V278.6H126.275V311H121.82V305.645L122.54 306.77C121.73 308.18 120.567 309.35 119.052 310.28C117.552 311.21 115.64 311.675 113.315 311.675ZM114.215 307.287C115.595 307.287 116.817 306.987 117.882 306.387C118.962 305.772 119.81 304.91 120.425 303.8C121.04 302.69 121.347 301.377 121.347 299.862C121.347 298.347 121.04 297.035 120.425 295.925C119.81 294.8 118.962 293.937 117.882 293.337C116.817 292.737 115.595 292.437 114.215 292.437C112.835 292.437 111.612 292.737 110.547 293.337C109.482 293.937 108.642 294.8 108.027 295.925C107.412 297.035 107.105 298.347 107.105 299.862C107.105 301.377 107.412 302.69 108.027 303.8C108.642 304.91 109.482 305.772 110.547 306.387C111.627 306.987 112.85 307.287 114.215 307.287ZM143.329 311.675C140.929 311.675 138.821 311.188 137.006 310.212C135.191 309.222 133.774 307.842 132.754 306.072C131.749 304.302 131.246 302.247 131.246 299.907C131.246 298.197 131.539 296.622 132.124 295.182C132.709 293.727 133.534 292.467 134.599 291.402C135.664 290.337 136.909 289.512 138.334 288.927C139.774 288.342 141.341 288.05 143.036 288.05C144.881 288.05 146.524 288.38 147.964 289.04C149.404 289.685 150.596 290.592 151.541 291.762C152.501 292.932 153.176 294.305 153.566 295.88C153.971 297.44 154.039 299.135 153.769 300.965H135.994C135.964 302.3 136.256 303.47 136.871 304.475C137.486 305.465 138.364 306.237 139.504 306.792C140.659 307.347 142.016 307.625 143.576 307.625C144.836 307.625 146.051 307.437 147.221 307.062C148.406 306.672 149.479 306.102 150.439 305.352L152.351 308.907C151.631 309.492 150.761 309.995 149.741 310.415C148.721 310.82 147.656 311.128 146.546 311.338C145.436 311.563 144.364 311.675 143.329 311.675ZM136.286 297.32H148.909C148.864 295.64 148.324 294.32 147.289 293.36C146.269 292.4 144.814 291.92 142.924 291.92C141.094 291.92 139.571 292.4 138.356 293.36C137.156 294.32 136.466 295.64 136.286 297.32ZM169.278 311.675C166.953 311.675 164.875 311.143 163.045 310.077C161.23 308.997 159.805 307.565 158.77 305.78C157.735 303.98 157.218 302.007 157.218 299.862C157.218 298.272 157.51 296.772 158.095 295.362C158.695 293.937 159.535 292.677 160.615 291.582C161.71 290.487 162.993 289.625 164.463 288.995C165.933 288.365 167.545 288.05 169.3 288.05C171.625 288.05 173.695 288.59 175.51 289.67C177.34 290.735 178.773 292.167 179.808 293.967C180.843 295.752 181.36 297.717 181.36 299.862C181.36 301.437 181.06 302.937 180.46 304.362C179.875 305.787 179.043 307.047 177.963 308.142C176.883 309.237 175.608 310.1 174.138 310.73C172.668 311.36 171.048 311.675 169.278 311.675ZM169.278 307.287C170.658 307.287 171.88 306.987 172.945 306.387C174.025 305.772 174.873 304.91 175.488 303.8C176.103 302.69 176.41 301.377 176.41 299.862C176.41 298.347 176.103 297.035 175.488 295.925C174.873 294.8 174.025 293.937 172.945 293.337C171.88 292.737 170.658 292.437 169.278 292.437C167.898 292.437 166.668 292.737 165.588 293.337C164.523 293.937 163.683 294.8 163.068 295.925C162.468 297.035 162.168 298.347 162.168 299.862C162.168 301.377 162.475 302.69 163.09 303.8C163.705 304.91 164.545 305.772 165.61 306.387C166.69 306.987 167.913 307.287 169.278 307.287ZM193.848 311.653C192.003 311.653 190.278 311.39 188.673 310.865C187.068 310.34 185.718 309.635 184.623 308.75L186.49 305.127C187.525 305.937 188.688 306.575 189.978 307.04C191.283 307.505 192.565 307.737 193.825 307.737C195.28 307.737 196.413 307.482 197.223 306.972C198.033 306.462 198.438 305.75 198.438 304.835C198.438 303.965 198.085 303.327 197.38 302.922C196.69 302.502 195.37 302.067 193.42 301.617C190.615 301.032 188.575 300.207 187.3 299.142C186.04 298.062 185.41 296.57 185.41 294.665C185.41 293.33 185.778 292.152 186.513 291.132C187.263 290.097 188.29 289.287 189.595 288.702C190.9 288.117 192.408 287.825 194.118 287.825C195.783 287.825 197.35 288.065 198.82 288.545C200.29 289.01 201.565 289.67 202.645 290.525L200.89 294.17C200.335 293.675 199.69 293.247 198.955 292.887C198.22 292.527 197.44 292.25 196.615 292.055C195.805 291.845 194.995 291.74 194.185 291.74C192.925 291.74 191.898 291.987 191.103 292.482C190.323 292.962 189.933 293.63 189.933 294.485C189.933 295.37 190.308 296.022 191.058 296.442C191.808 296.862 193.098 297.282 194.928 297.702C197.808 298.332 199.87 299.172 201.115 300.222C202.36 301.272 202.983 302.727 202.983 304.587C202.983 306.012 202.6 307.257 201.835 308.322C201.07 309.372 199.998 310.19 198.618 310.775C197.253 311.36 195.663 311.653 193.848 311.653ZM225.787 311.675C224.242 311.675 222.884 311.39 221.714 310.82C220.544 310.235 219.629 309.417 218.969 308.367C218.324 307.302 218.002 306.05 218.002 304.61C218.002 303.395 218.309 302.3 218.924 301.325C219.539 300.335 220.492 299.517 221.782 298.872C223.087 298.227 224.759 297.8 226.799 297.59C228.839 297.365 231.292 297.395 234.157 297.68L234.247 301.1C232.207 300.815 230.452 300.695 228.982 300.74C227.512 300.785 226.304 300.972 225.359 301.302C224.429 301.617 223.739 302.045 223.289 302.585C222.854 303.11 222.637 303.717 222.637 304.407C222.637 305.487 223.019 306.32 223.784 306.905C224.564 307.49 225.629 307.782 226.979 307.782C228.134 307.782 229.169 307.572 230.084 307.152C230.999 306.732 231.719 306.14 232.244 305.375C232.784 304.61 233.054 303.71 233.054 302.675V296.757C233.054 295.767 232.844 294.912 232.424 294.192C232.004 293.457 231.367 292.887 230.512 292.482C229.657 292.077 228.592 291.875 227.317 291.875C226.147 291.875 224.992 292.055 223.852 292.415C222.712 292.76 221.624 293.307 220.589 294.057L219.194 290.412C220.589 289.467 222.044 288.8 223.559 288.41C225.074 288.02 226.529 287.825 227.924 287.825C229.994 287.825 231.764 288.155 233.234 288.815C234.719 289.46 235.859 290.442 236.654 291.762C237.449 293.067 237.847 294.717 237.847 296.712V311H233.392V308.367C232.642 309.432 231.599 310.25 230.264 310.82C228.929 311.39 227.437 311.675 225.787 311.675ZM244.428 311V288.725H249.378V291.56C250.308 290.315 251.388 289.422 252.618 288.882C253.848 288.327 255.123 288.05 256.443 288.05C258.483 288.05 260.171 288.455 261.506 289.265C262.841 290.075 263.831 291.117 264.476 292.392C265.136 293.667 265.466 294.98 265.466 296.33V311H260.516V297.86C260.516 296.27 260.036 294.995 259.076 294.035C258.131 293.075 256.811 292.595 255.116 292.595C254.006 292.595 253.016 292.842 252.146 293.337C251.291 293.832 250.616 294.522 250.121 295.407C249.626 296.277 249.378 297.297 249.378 298.467V311H244.428ZM281.361 311.675C279.186 311.675 277.259 311.165 275.579 310.145C273.899 309.11 272.579 307.707 271.619 305.937C270.674 304.152 270.201 302.127 270.201 299.862C270.201 298.227 270.471 296.697 271.011 295.272C271.551 293.832 272.316 292.572 273.306 291.492C274.311 290.412 275.496 289.572 276.861 288.972C278.241 288.357 279.764 288.05 281.429 288.05C283.454 288.05 285.209 288.455 286.694 289.265C288.179 290.075 289.416 291.2 290.406 292.64L289.371 293.742V278.6H294.321V311H289.866V305.645L290.586 306.77C289.776 308.18 288.614 309.35 287.099 310.28C285.599 311.21 283.686 311.675 281.361 311.675ZM282.261 307.287C283.641 307.287 284.864 306.987 285.929 306.387C287.009 305.772 287.856 304.91 288.471 303.8C289.086 302.69 289.394 301.377 289.394 299.862C289.394 298.347 289.086 297.035 288.471 295.925C287.856 294.8 287.009 293.937 285.929 293.337C284.864 292.737 283.641 292.437 282.261 292.437C280.881 292.437 279.659 292.737 278.594 293.337C277.529 293.937 276.689 294.8 276.074 295.925C275.459 297.035 275.151 298.347 275.151 299.862C275.151 301.377 275.459 302.69 276.074 303.8C276.689 304.91 277.529 305.772 278.594 306.387C279.674 306.987 280.896 307.287 282.261 307.287ZM312.236 311V288.725H317.186V291.785C317.786 290.915 318.476 290.21 319.256 289.67C320.036 289.115 320.861 288.71 321.731 288.455C322.601 288.185 323.486 288.05 324.386 288.05C326.201 288.05 327.708 288.447 328.908 289.242C330.123 290.037 330.978 291.057 331.473 292.302C332.583 290.682 333.873 289.572 335.343 288.972C336.813 288.357 338.291 288.05 339.776 288.05C341.831 288.05 343.473 288.455 344.703 289.265C345.933 290.075 346.818 291.117 347.358 292.392C347.913 293.667 348.191 294.98 348.191 296.33V311H343.241V297.77C343.241 296.225 342.813 294.98 341.958 294.035C341.118 293.075 339.888 292.595 338.268 292.595C337.203 292.595 336.251 292.827 335.411 293.292C334.571 293.757 333.903 294.402 333.408 295.227C332.928 296.037 332.688 296.975 332.688 298.04V311H327.738V297.77C327.738 296.225 327.318 294.98 326.478 294.035C325.638 293.075 324.401 292.595 322.766 292.595C321.716 292.595 320.763 292.827 319.908 293.292C319.068 293.757 318.401 294.402 317.906 295.227C317.426 296.037 317.186 296.975 317.186 298.04V311H312.236ZM363.238 311.675C361.243 311.675 359.593 311.278 358.288 310.482C356.998 309.672 356.031 308.607 355.386 307.287C354.741 305.967 354.418 304.527 354.418 302.967V288.725H359.368V302.045C359.368 303.575 359.818 304.805 360.718 305.735C361.633 306.65 362.893 307.107 364.498 307.107C365.548 307.107 366.486 306.875 367.311 306.41C368.136 305.93 368.788 305.262 369.268 304.407C369.763 303.552 370.011 302.562 370.011 301.437V288.725H374.961V311H370.506V308.367C369.636 309.417 368.601 310.235 367.401 310.82C366.216 311.39 364.828 311.675 363.238 311.675ZM389.36 311.653C387.515 311.653 385.79 311.39 384.185 310.865C382.58 310.34 381.23 309.635 380.135 308.75L382.003 305.127C383.038 305.937 384.2 306.575 385.49 307.04C386.795 307.505 388.078 307.737 389.338 307.737C390.793 307.737 391.925 307.482 392.735 306.972C393.545 306.462 393.95 305.75 393.95 304.835C393.95 303.965 393.598 303.327 392.893 302.922C392.203 302.502 390.883 302.067 388.933 301.617C386.128 301.032 384.088 300.207 382.813 299.142C381.553 298.062 380.923 296.57 380.923 294.665C380.923 293.33 381.29 292.152 382.025 291.132C382.775 290.097 383.803 289.287 385.108 288.702C386.413 288.117 387.92 287.825 389.63 287.825C391.295 287.825 392.863 288.065 394.333 288.545C395.803 289.01 397.078 289.67 398.158 290.525L396.403 294.17C395.848 293.675 395.203 293.247 394.468 292.887C393.733 292.527 392.953 292.25 392.128 292.055C391.318 291.845 390.508 291.74 389.698 291.74C388.438 291.74 387.41 291.987 386.615 292.482C385.835 292.962 385.445 293.63 385.445 294.485C385.445 295.37 385.82 296.022 386.57 296.442C387.32 296.862 388.61 297.282 390.44 297.702C393.32 298.332 395.383 299.172 396.628 300.222C397.873 301.272 398.495 302.727 398.495 304.587C398.495 306.012 398.113 307.257 397.348 308.322C396.583 309.372 395.51 310.19 394.13 310.775C392.765 311.36 391.175 311.653 389.36 311.653ZM404.082 311V288.725H409.032V311H404.082ZM406.557 284.742C405.672 284.742 404.907 284.457 404.262 283.887C403.617 283.317 403.294 282.567 403.294 281.637C403.294 280.722 403.617 279.98 404.262 279.41C404.907 278.825 405.672 278.532 406.557 278.532C407.442 278.532 408.207 278.825 408.852 279.41C409.497 279.98 409.819 280.722 409.819 281.637C409.819 282.567 409.497 283.317 408.852 283.887C408.207 284.457 407.442 284.742 406.557 284.742ZM426.118 311.675C423.778 311.675 421.693 311.165 419.863 310.145C418.033 309.11 416.593 307.707 415.543 305.937C414.508 304.152 413.99 302.127 413.99 299.862C413.99 298.152 414.298 296.585 414.913 295.16C415.528 293.72 416.398 292.467 417.523 291.402C418.648 290.337 419.968 289.512 421.483 288.927C423.013 288.342 424.67 288.05 426.455 288.05C427.955 288.05 429.343 288.252 430.618 288.657C431.908 289.047 433.093 289.655 434.173 290.48L431.788 294.26C431.098 293.645 430.303 293.187 429.403 292.887C428.518 292.587 427.573 292.437 426.568 292.437C425.008 292.437 423.665 292.73 422.54 293.315C421.415 293.9 420.538 294.747 419.908 295.857C419.293 296.952 418.985 298.28 418.985 299.84C418.985 302.165 419.66 303.987 421.01 305.307C422.375 306.627 424.228 307.287 426.568 307.287C427.678 307.287 428.728 307.085 429.718 306.68C430.708 306.26 431.533 305.712 432.193 305.037L434.555 308.795C433.37 309.695 432.05 310.4 430.595 310.91C429.14 311.42 427.648 311.675 426.118 311.675ZM168.104 355V337.675H171.954V355H168.104ZM170.029 334.577C169.341 334.577 168.746 334.356 168.244 333.912C167.743 333.469 167.492 332.886 167.492 332.162C167.492 331.451 167.743 330.873 168.244 330.43C168.746 329.975 169.341 329.747 170.029 329.747C170.718 329.747 171.313 329.975 171.814 330.43C172.316 330.873 172.567 331.451 172.567 332.162C172.567 332.886 172.316 333.469 171.814 333.912C171.313 334.356 170.718 334.577 170.029 334.577ZM177.299 355V337.675H181.149V339.88C181.872 338.912 182.712 338.217 183.669 337.797C184.625 337.366 185.617 337.15 186.644 337.15C188.23 337.15 189.543 337.465 190.581 338.095C191.619 338.725 192.389 339.536 192.891 340.527C193.404 341.519 193.661 342.54 193.661 343.59V355H189.811V344.78C189.811 343.543 189.438 342.552 188.691 341.805C187.956 341.058 186.929 340.685 185.611 340.685C184.748 340.685 183.978 340.877 183.301 341.262C182.636 341.647 182.111 342.184 181.726 342.872C181.341 343.549 181.149 344.342 181.149 345.252V355H177.299ZM204.677 355.508C203.242 355.508 201.9 355.303 200.652 354.895C199.403 354.487 198.353 353.938 197.502 353.25L198.954 350.432C199.759 351.062 200.663 351.558 201.667 351.92C202.682 352.282 203.679 352.462 204.659 352.462C205.791 352.462 206.672 352.264 207.302 351.867C207.932 351.471 208.247 350.917 208.247 350.205C208.247 349.528 207.973 349.032 207.424 348.717C206.888 348.391 205.861 348.052 204.344 347.702C202.163 347.247 200.576 346.606 199.584 345.777C198.604 344.937 198.114 343.777 198.114 342.295C198.114 341.257 198.4 340.341 198.972 339.547C199.555 338.742 200.354 338.112 201.369 337.657C202.384 337.202 203.557 336.975 204.887 336.975C206.182 336.975 207.401 337.162 208.544 337.535C209.688 337.897 210.679 338.41 211.519 339.075L210.154 341.91C209.723 341.525 209.221 341.192 208.649 340.912C208.078 340.632 207.471 340.417 206.829 340.265C206.199 340.102 205.569 340.02 204.939 340.02C203.959 340.02 203.16 340.212 202.542 340.597C201.935 340.971 201.632 341.49 201.632 342.155C201.632 342.843 201.923 343.351 202.507 343.677C203.09 344.004 204.093 344.331 205.517 344.657C207.757 345.147 209.361 345.801 210.329 346.617C211.298 347.434 211.782 348.566 211.782 350.012C211.782 351.121 211.484 352.089 210.889 352.917C210.294 353.734 209.46 354.37 208.387 354.825C207.325 355.28 206.088 355.508 204.677 355.508ZM223.407 355.525C221.715 355.525 220.362 355.035 219.347 354.055C218.332 353.075 217.824 351.576 217.824 349.557V332.617H221.674V337.675H226.487V340.86H221.674V348.717C221.674 349.931 221.902 350.788 222.357 351.29C222.823 351.78 223.477 352.025 224.317 352.025C224.725 352.025 225.11 351.978 225.472 351.885C225.833 351.792 226.16 351.669 226.452 351.517L227.134 354.632C226.633 354.889 226.055 355.099 225.402 355.263C224.76 355.438 224.095 355.525 223.407 355.525ZM214.027 340.86V337.675H218.332V340.86H214.027ZM235.978 355.525C234.777 355.525 233.721 355.303 232.811 354.86C231.901 354.405 231.189 353.769 230.676 352.952C230.174 352.124 229.923 351.15 229.923 350.03C229.923 349.085 230.162 348.233 230.641 347.475C231.119 346.705 231.86 346.069 232.863 345.567C233.878 345.066 235.179 344.733 236.766 344.57C238.352 344.395 240.26 344.418 242.488 344.64L242.558 347.3C240.972 347.078 239.607 346.985 238.463 347.02C237.32 347.055 236.381 347.201 235.646 347.457C234.922 347.702 234.386 348.035 234.036 348.455C233.697 348.863 233.528 349.336 233.528 349.872C233.528 350.712 233.826 351.36 234.421 351.815C235.027 352.27 235.856 352.497 236.906 352.497C237.804 352.497 238.609 352.334 239.321 352.007C240.032 351.681 240.592 351.22 241.001 350.625C241.421 350.03 241.631 349.33 241.631 348.525V343.922C241.631 343.152 241.467 342.487 241.141 341.927C240.814 341.356 240.318 340.912 239.653 340.597C238.988 340.282 238.16 340.125 237.168 340.125C236.258 340.125 235.36 340.265 234.473 340.545C233.587 340.813 232.741 341.239 231.936 341.822L230.851 338.987C231.936 338.252 233.067 337.733 234.246 337.43C235.424 337.127 236.556 336.975 237.641 336.975C239.251 336.975 240.627 337.232 241.771 337.745C242.926 338.247 243.812 339.011 244.431 340.037C245.049 341.052 245.358 342.336 245.358 343.887V355H241.893V352.952C241.31 353.781 240.499 354.417 239.461 354.86C238.422 355.303 237.262 355.525 235.978 355.525ZM257.302 362.875C256.007 362.875 254.841 362.758 253.802 362.525C252.764 362.303 251.877 361.977 251.142 361.545C250.419 361.113 249.865 360.594 249.48 359.988C249.095 359.381 248.902 358.704 248.902 357.958C248.902 357.363 249.06 356.803 249.375 356.278C249.701 355.753 250.18 355.303 250.81 354.93C251.451 354.545 252.233 354.259 253.155 354.072C252.466 353.722 251.953 353.326 251.615 352.882C251.288 352.439 251.125 351.932 251.125 351.36C251.125 350.87 251.265 350.409 251.545 349.977C251.836 349.534 252.245 349.143 252.77 348.805C253.306 348.455 253.936 348.169 254.66 347.947C255.383 347.726 256.182 347.597 257.057 347.562L257.897 349.242C257.174 349.231 256.556 349.289 256.042 349.417C255.541 349.534 255.15 349.703 254.87 349.925C254.601 350.135 254.467 350.392 254.467 350.695C254.467 351.092 254.695 351.383 255.15 351.57C255.605 351.745 256.246 351.867 257.075 351.937L260.05 352.165C261.508 352.282 262.751 352.521 263.777 352.882C264.816 353.244 265.609 353.752 266.157 354.405C266.717 355.058 266.997 355.887 266.997 356.89C266.997 357.742 266.764 358.529 266.297 359.253C265.842 359.988 265.183 360.623 264.32 361.16C263.468 361.697 262.447 362.117 261.257 362.42C260.067 362.723 258.749 362.875 257.302 362.875ZM257.687 360.215C259.426 360.215 260.791 359.953 261.782 359.428C262.786 358.914 263.287 358.243 263.287 357.415C263.287 356.785 262.955 356.295 262.29 355.945C261.625 355.595 260.61 355.373 259.245 355.28L256.06 355.035C255.313 355.093 254.666 355.233 254.117 355.455C253.581 355.677 253.172 355.963 252.892 356.313C252.612 356.663 252.472 357.059 252.472 357.503C252.472 358.039 252.682 358.512 253.102 358.92C253.522 359.328 254.123 359.643 254.905 359.865C255.686 360.098 256.614 360.215 257.687 360.215ZM257.565 349.505C256.118 349.505 254.817 349.231 253.662 348.682C252.519 348.134 251.615 347.393 250.95 346.46C250.285 345.527 249.952 344.482 249.952 343.327C249.952 342.172 250.285 341.128 250.95 340.195C251.626 339.262 252.536 338.521 253.68 337.972C254.835 337.424 256.13 337.15 257.565 337.15C259 337.15 260.289 337.424 261.432 337.972C262.576 338.521 263.48 339.262 264.145 340.195C264.821 341.128 265.16 342.172 265.16 343.327C265.16 344.471 264.827 345.509 264.162 346.442C263.497 347.376 262.593 348.122 261.45 348.682C260.306 349.231 259.011 349.505 257.565 349.505ZM257.565 346.617C258.358 346.617 259.064 346.483 259.682 346.215C260.301 345.935 260.785 345.55 261.135 345.06C261.485 344.558 261.66 343.981 261.66 343.327C261.66 342.347 261.275 341.554 260.505 340.947C259.746 340.329 258.766 340.02 257.565 340.02C256.76 340.02 256.048 340.16 255.43 340.44C254.823 340.72 254.345 341.111 253.995 341.612C253.645 342.102 253.47 342.674 253.47 343.327C253.47 344.296 253.849 345.089 254.607 345.707C255.377 346.314 256.363 346.617 257.565 346.617ZM260.26 340.72L258.825 338.042L268.117 337.675L268.082 340.86L260.26 340.72ZM271.429 355V337.675H275.279V340.072C275.933 338.987 276.726 338.229 277.659 337.797C278.593 337.354 279.596 337.132 280.669 337.132C281.019 337.132 281.352 337.15 281.667 337.185C281.982 337.22 282.285 337.272 282.577 337.342L282.069 341.315C281.719 341.21 281.364 341.128 281.002 341.07C280.64 341.012 280.279 340.982 279.917 340.982C278.575 340.982 277.467 341.397 276.592 342.225C275.717 343.042 275.279 344.156 275.279 345.567V355H271.429ZM290.597 355.525C289.396 355.525 288.34 355.303 287.43 354.86C286.52 354.405 285.808 353.769 285.295 352.952C284.793 352.124 284.542 351.15 284.542 350.03C284.542 349.085 284.782 348.233 285.26 347.475C285.738 346.705 286.479 346.069 287.482 345.567C288.497 345.066 289.798 344.733 291.385 344.57C292.972 344.395 294.879 344.418 297.107 344.64L297.177 347.3C295.591 347.078 294.226 346.985 293.082 347.02C291.939 347.055 291 347.201 290.265 347.457C289.542 347.702 289.005 348.035 288.655 348.455C288.317 348.863 288.147 349.336 288.147 349.872C288.147 350.712 288.445 351.36 289.04 351.815C289.647 352.27 290.475 352.497 291.525 352.497C292.423 352.497 293.228 352.334 293.94 352.007C294.652 351.681 295.212 351.22 295.62 350.625C296.04 350.03 296.25 349.33 296.25 348.525V343.922C296.25 343.152 296.087 342.487 295.76 341.927C295.433 341.356 294.937 340.912 294.272 340.597C293.607 340.282 292.779 340.125 291.787 340.125C290.877 340.125 289.979 340.265 289.092 340.545C288.206 340.813 287.36 341.239 286.555 341.822L285.47 338.987C286.555 338.252 287.687 337.733 288.865 337.43C290.043 337.127 291.175 336.975 292.26 336.975C293.87 336.975 295.247 337.232 296.39 337.745C297.545 338.247 298.432 339.011 299.05 340.037C299.668 341.052 299.977 342.336 299.977 343.887V355H296.512V352.952C295.929 353.781 295.118 354.417 294.08 354.86C293.042 355.303 291.881 355.525 290.597 355.525ZM305.096 355V337.675H308.946V340.055C309.413 339.378 309.95 338.83 310.556 338.41C311.163 337.978 311.805 337.663 312.481 337.465C313.158 337.255 313.846 337.15 314.546 337.15C315.958 337.15 317.131 337.459 318.064 338.077C319.009 338.696 319.674 339.489 320.059 340.457C320.922 339.197 321.926 338.334 323.069 337.867C324.212 337.389 325.361 337.15 326.516 337.15C328.115 337.15 329.392 337.465 330.349 338.095C331.306 338.725 331.994 339.536 332.414 340.527C332.846 341.519 333.061 342.54 333.061 343.59V355H329.211V344.71C329.211 343.508 328.879 342.54 328.214 341.805C327.561 341.058 326.604 340.685 325.344 340.685C324.516 340.685 323.775 340.866 323.121 341.227C322.468 341.589 321.949 342.091 321.564 342.732C321.191 343.362 321.004 344.092 321.004 344.92V355H317.154V344.71C317.154 343.508 316.827 342.54 316.174 341.805C315.521 341.058 314.558 340.685 313.286 340.685C312.47 340.685 311.729 340.866 311.064 341.227C310.411 341.589 309.891 342.091 309.506 342.732C309.133 343.362 308.946 344.092 308.946 344.92V355H305.096Z" fill="white"/>
<path d="M165.427 357.188H248.023V358.062H165.427V357.188ZM267.859 357.188H335.564V358.062H267.859V357.188Z" fill="white"/>
<path d="M154.209 242.89C154.209 244.09 153.489 245.35 152.049 246.67C150.609 247.93 148.689 249.01 146.289 249.91C143.949 250.81 141.429 251.26 138.729 251.26C136.029 251.26 133.539 250.48 131.259 248.92C129.039 247.3 127.239 245.14 125.859 242.44C124.539 239.68 123.879 236.56 123.879 233.08C123.879 229.6 124.719 226.33 126.399 223.27C128.079 220.15 130.329 217.63 133.149 215.71C135.969 213.79 139.089 212.83 142.509 212.83C147.609 212.83 151.329 214.27 153.669 217.15C153.969 217.63 154.119 218.08 154.119 218.5C154.119 219.04 153.669 219.64 152.769 220.3C151.929 220.96 151.149 221.29 150.429 221.29C149.709 221.29 149.049 220.99 148.449 220.39C147.369 219.19 146.469 218.29 145.749 217.69C145.029 217.09 144.249 216.7 143.409 216.52C142.569 216.28 141.429 216.16 139.989 216.16C136.869 216.16 134.439 217.51 132.699 220.21C130.959 222.85 130.089 226.21 130.089 230.29C130.089 232.99 130.689 235.6 131.889 238.12C133.149 240.58 134.859 242.62 137.019 244.24C139.179 245.8 141.639 246.58 144.399 246.58C146.199 246.58 147.639 246.25 148.719 245.59C149.859 244.87 151.059 243.7 152.319 242.08C152.619 241.78 152.889 241.63 153.129 241.63C153.369 241.63 153.609 241.78 153.849 242.08C154.089 242.32 154.209 242.59 154.209 242.89ZM166.355 249.82L159.065 250.27C157.865 250.27 157.265 249.97 157.265 249.37C157.265 248.83 157.805 248.38 158.885 248.02C159.965 247.66 160.685 247.42 161.045 247.3C161.405 247.12 161.795 246.79 162.215 246.31C162.575 245.83 162.755 245.2 162.755 244.42V225.07C162.755 221.29 161.525 219.13 159.065 218.59C158.585 218.47 158.345 218.08 158.345 217.42C158.345 216.76 158.555 216.4 158.975 216.34C161.195 215.92 162.875 215.32 164.015 214.54C165.035 213.88 165.875 213.34 166.535 212.92C167.255 212.5 167.765 212.17 168.065 211.93C168.725 211.57 169.055 211.36 169.055 211.3H169.325C169.505 211.3 169.625 211.51 169.685 211.93C169.685 212.71 169.685 213.49 169.685 214.27C169.685 215.05 169.655 215.83 169.595 216.61C169.535 218.11 169.535 218.86 169.595 218.86C169.595 218.86 169.745 218.71 170.045 218.41C170.885 217.33 171.425 216.73 171.665 216.61C174.485 214.03 177.245 212.74 179.945 212.74C181.205 212.74 182.225 213.01 183.005 213.55C183.845 214.09 184.265 214.81 184.265 215.71C184.265 216.61 183.875 217.6 183.095 218.68C182.375 219.76 181.685 220.3 181.025 220.3C180.365 220.3 179.405 220.03 178.145 219.49C176.885 218.95 175.955 218.68 175.355 218.68C173.615 218.68 172.115 219.25 170.855 220.39C169.655 221.53 169.055 223.48 169.055 226.24V243.97C169.115 245.53 170.735 246.82 173.915 247.84C175.295 248.32 175.985 248.83 175.985 249.37C175.985 249.97 175.385 250.27 174.185 250.27L166.355 249.82ZM216.394 243.61C216.154 244.63 215.404 245.74 214.144 246.94C212.884 248.14 211.234 249.16 209.194 250C207.154 250.84 204.814 251.26 202.174 251.26C199.534 251.26 197.074 250.45 194.794 248.83C192.574 247.15 190.774 244.87 189.394 241.99C188.074 239.11 187.414 235.84 187.414 232.18C187.414 228.52 188.194 225.22 189.754 222.28C191.374 219.34 193.534 217.03 196.234 215.35C198.934 213.61 201.964 212.74 205.324 212.74C208.924 212.74 211.744 213.49 213.784 214.99C215.884 216.49 216.934 218.53 216.934 221.11C216.934 223.69 216.274 225.31 214.954 225.97C213.694 226.57 212.044 226.87 210.004 226.87H195.244C194.404 226.87 193.804 227.08 193.444 227.5C193.144 227.86 192.994 228.76 192.994 230.2C192.994 232.96 193.594 235.54 194.794 237.94C195.994 240.34 197.584 242.26 199.564 243.7C201.604 245.14 203.884 245.86 206.404 245.86C210.064 245.86 212.944 244.54 215.044 241.9C215.464 241.48 215.794 241.27 216.034 241.27C216.454 241.27 216.664 241.57 216.664 242.17C216.664 242.59 216.574 243.07 216.394 243.61ZM194.704 222.73C194.704 223.63 195.274 224.08 196.414 224.08H203.794C205.174 224.08 206.404 224.05 207.484 223.99C208.624 223.87 209.584 223.75 210.364 223.63C210.964 223.57 211.264 222.7 211.264 221.02C211.264 219.4 210.514 218.08 209.014 217.06C207.514 216.04 205.714 215.53 203.614 215.53C202.174 215.53 200.764 215.95 199.384 216.79C198.064 217.57 196.954 218.53 196.054 219.67C195.154 220.75 194.704 221.77 194.704 222.73ZM239.946 247.75C239.106 248.53 237.846 249.31 236.166 250.09C234.546 250.87 232.746 251.26 230.766 251.26C229.446 251.26 228.156 250.9 226.896 250.18C225.696 249.52 224.706 248.65 223.926 247.57C223.146 246.43 222.756 245.29 222.756 244.15C222.756 240.55 224.946 237.85 229.326 236.05L238.506 232.27C239.646 231.79 240.336 231.37 240.576 231.01C240.816 230.65 240.966 229.87 241.026 228.67L241.206 223.09V222.91C241.206 221.35 240.696 220 239.676 218.86C238.716 217.72 237.606 217.15 236.346 217.15C235.026 217.15 233.796 217.48 232.656 218.14C231.516 218.74 230.796 219.31 230.496 219.85C230.196 220.45 230.046 221.08 230.046 221.74L230.136 223C230.136 223.36 229.716 223.78 228.876 224.26C228.036 224.74 227.136 225.19 226.176 225.61C225.216 225.97 224.526 226.15 224.106 226.15C223.506 226.15 223.206 225.88 223.206 225.34C223.206 223.96 223.686 222.64 224.646 221.38C225.606 220.12 226.836 218.92 228.336 217.78C229.896 216.64 231.516 215.62 233.196 214.72C235.656 213.4 237.996 212.74 240.216 212.74C242.316 212.74 244.086 213.52 245.526 215.08C246.966 216.64 247.656 218.53 247.596 220.75L247.146 240.19V240.73C247.146 244.99 248.226 247.12 250.386 247.12C251.826 247.12 253.026 246.7 253.986 245.86C254.106 245.74 254.256 245.68 254.436 245.68C254.676 245.68 254.886 245.77 255.066 245.95C255.306 246.13 255.426 246.37 255.426 246.67V246.76C255.186 247.24 254.676 247.84 253.896 248.56C253.116 249.28 252.216 249.91 251.196 250.45C250.176 250.99 249.186 251.26 248.226 251.26C246.726 251.26 245.466 250.87 244.446 250.09C243.486 249.31 242.796 248.53 242.376 247.75C241.956 246.97 241.686 246.58 241.566 246.58C241.266 246.58 240.726 246.97 239.946 247.75ZM229.956 242.17C229.956 243.73 230.436 244.96 231.396 245.86C232.356 246.7 233.526 247.12 234.906 247.12C236.286 247.12 237.606 246.58 238.866 245.5C240.126 244.42 240.786 242.95 240.846 241.09L241.026 236.68V236.23C241.026 235.27 240.756 234.79 240.216 234.79C239.856 234.79 239.436 234.88 238.956 235.06C232.956 237.1 229.956 239.47 229.956 242.17ZM281.654 247.57C280.694 248.47 279.344 249.31 277.604 250.09C275.924 250.87 274.244 251.26 272.564 251.26C269.624 251.26 267.314 250.39 265.634 248.65C264.014 246.85 263.204 244.15 263.204 240.55V219.67C263.204 219.13 262.994 218.77 262.574 218.59C262.154 218.41 261.224 218.32 259.784 218.32C259.604 218.32 259.364 218.08 259.064 217.6C258.824 217.12 258.704 216.76 258.704 216.52C258.704 216.28 258.854 216.07 259.154 215.89C260.534 215.47 261.944 214.6 263.384 213.28C264.824 211.96 265.994 210.73 266.894 209.59C267.794 208.45 268.334 207.88 268.514 207.88C269.354 207.88 269.774 208.18 269.774 208.78L269.594 212.74C269.594 213.58 270.314 214 271.754 214H282.014C282.614 214 282.914 214.72 282.914 216.16C282.914 217.6 282.614 218.32 282.014 218.32H273.104C271.484 218.32 270.464 218.44 270.044 218.68C269.684 218.92 269.504 219.64 269.504 220.84V237.85C269.504 240.91 270.074 243.1 271.214 244.42C272.354 245.68 273.764 246.31 275.444 246.31C278.444 246.31 280.694 245.74 282.194 244.6C282.254 244.54 282.344 244.51 282.464 244.51C282.884 244.51 283.094 244.9 283.094 245.68C283.094 246.16 282.614 246.79 281.654 247.57ZM299.064 199.33C299.004 200.59 298.554 201.64 297.714 202.48C296.874 203.32 295.794 203.77 294.474 203.83C293.154 203.77 292.074 203.32 291.234 202.48C290.394 201.64 289.974 200.56 289.974 199.24C289.974 197.92 290.394 196.84 291.234 196C292.074 195.16 293.154 194.74 294.474 194.74C295.794 194.74 296.874 195.16 297.714 196C298.554 196.84 299.004 197.95 299.064 199.33ZM295.104 249.82L287.814 250.27C286.614 250.27 286.014 249.97 286.014 249.37C286.014 248.83 286.854 248.29 288.534 247.75C290.274 247.21 291.264 246.64 291.504 246.04C291.804 245.44 291.954 244.9 291.954 244.42V224.89C291.954 221.17 290.544 218.98 287.724 218.32C287.244 218.2 287.004 217.81 287.004 217.15C287.004 216.49 287.214 216.13 287.634 216.07C290.514 215.35 293.574 213.94 296.814 211.84C297.774 211.24 298.314 210.94 298.434 210.94C298.854 210.94 299.064 211.09 299.064 211.39C298.524 216.85 298.254 220.9 298.254 223.54V244.42C298.254 245.62 298.614 246.4 299.334 246.76C300.114 247.12 301.134 247.51 302.394 247.93C303.594 248.41 304.194 248.89 304.194 249.37C304.194 249.97 303.594 250.27 302.394 250.27L295.104 249.82ZM327.785 247.93C326.465 250.63 325.655 251.98 325.355 251.98C324.995 251.98 324.395 250.81 323.555 248.47L312.575 220.39C311.615 217.99 310.235 216.52 308.435 215.98C307.055 215.5 306.365 214.96 306.365 214.36C306.365 213.82 306.965 213.55 308.165 213.55L314.735 214L321.485 213.55C322.685 213.55 323.285 213.82 323.285 214.36C323.285 214.96 322.595 215.5 321.215 215.98C320.015 216.34 319.415 217.57 319.415 219.67C319.415 220.75 319.535 221.56 319.775 222.1L326.435 240.01C326.735 240.67 326.915 241 326.975 241C327.095 241 327.275 240.7 327.515 240.1L333.995 223.45C334.415 222.43 334.625 221.35 334.625 220.21C334.625 217.81 333.875 216.4 332.375 215.98C330.995 215.5 330.305 214.96 330.305 214.36C330.305 213.82 330.905 213.55 332.105 213.55L338.675 214C339.875 214 340.955 213.91 341.915 213.73C342.395 213.67 342.845 213.64 343.265 213.64C343.745 213.58 344.195 213.55 344.615 213.55C345.395 213.55 345.785 213.82 345.785 214.36C345.785 214.96 345.215 215.44 344.075 215.8C342.935 216.22 341.795 217 340.655 218.14C339.575 219.28 338.735 220.57 338.135 222.01L331.115 238.93L327.785 247.93ZM377.058 243.61C376.818 244.63 376.068 245.74 374.808 246.94C373.548 248.14 371.898 249.16 369.858 250C367.818 250.84 365.478 251.26 362.838 251.26C360.198 251.26 357.738 250.45 355.458 248.83C353.238 247.15 351.438 244.87 350.058 241.99C348.738 239.11 348.078 235.84 348.078 232.18C348.078 228.52 348.858 225.22 350.418 222.28C352.038 219.34 354.198 217.03 356.898 215.35C359.598 213.61 362.628 212.74 365.988 212.74C369.588 212.74 372.408 213.49 374.448 214.99C376.548 216.49 377.598 218.53 377.598 221.11C377.598 223.69 376.938 225.31 375.618 225.97C374.358 226.57 372.708 226.87 370.668 226.87H355.908C355.068 226.87 354.468 227.08 354.108 227.5C353.808 227.86 353.658 228.76 353.658 230.2C353.658 232.96 354.258 235.54 355.458 237.94C356.658 240.34 358.248 242.26 360.228 243.7C362.268 245.14 364.548 245.86 367.068 245.86C370.728 245.86 373.608 244.54 375.708 241.9C376.128 241.48 376.458 241.27 376.698 241.27C377.118 241.27 377.328 241.57 377.328 242.17C377.328 242.59 377.238 243.07 377.058 243.61ZM355.368 222.73C355.368 223.63 355.938 224.08 357.078 224.08H364.458C365.838 224.08 367.068 224.05 368.148 223.99C369.288 223.87 370.248 223.75 371.028 223.63C371.628 223.57 371.928 222.7 371.928 221.02C371.928 219.4 371.178 218.08 369.678 217.06C368.178 216.04 366.378 215.53 364.278 215.53C362.838 215.53 361.428 215.95 360.048 216.79C358.728 217.57 357.618 218.53 356.718 219.67C355.818 220.75 355.368 221.77 355.368 222.73Z" fill="white"/>
<path d="M187.644 129.188C187.644 129.78 187.37 130.122 186.823 130.213C186.595 130.304 186.368 130.35 186.14 130.35C185.957 130.304 185.752 130.304 185.524 130.35C184.978 130.395 184.431 130.464 183.884 130.555C183.382 130.646 182.858 130.737 182.312 130.828C179.851 131.329 177.435 132.15 175.065 133.289C172.741 134.383 170.713 135.841 168.981 137.664C168.48 138.211 168.07 138.803 167.751 139.441C167.478 140.034 167.341 140.717 167.341 141.492C167.341 141.993 167.614 142.381 168.161 142.654C168.708 142.928 169.369 143.201 170.144 143.475C170.964 143.748 171.83 144.044 172.741 144.363C173.698 144.682 174.564 145.138 175.339 145.73C176.159 146.323 176.843 147.098 177.39 148.055C177.937 148.966 178.21 150.151 178.21 151.609C178.21 153.296 177.891 154.913 177.253 156.463C176.615 158.012 175.726 159.402 174.587 160.633C173.448 161.818 172.126 162.752 170.622 163.436C169.118 164.165 167.523 164.529 165.837 164.529C164.242 164.529 162.829 164.188 161.599 163.504C160.414 162.82 159.411 161.932 158.591 160.838C157.771 159.744 157.155 158.514 156.745 157.146C156.335 155.734 156.13 154.298 156.13 152.84C156.13 152.566 156.13 152.225 156.13 151.814C156.175 151.359 156.221 150.926 156.267 150.516C156.358 150.105 156.494 149.741 156.677 149.422C156.859 149.103 157.132 148.943 157.497 148.943C157.725 148.943 157.953 149.035 158.181 149.217C158.454 149.399 158.591 149.627 158.591 149.9C158.591 150.949 158.705 152.111 158.933 153.387C159.206 154.663 159.616 155.848 160.163 156.941C160.71 158.035 161.439 158.969 162.351 159.744C163.262 160.473 164.379 160.838 165.7 160.838C166.885 160.838 168.024 160.587 169.118 160.086C170.212 159.539 171.169 158.833 171.989 157.967C172.855 157.101 173.516 156.121 173.972 155.027C174.473 153.888 174.724 152.726 174.724 151.541V150.857C174.724 150.083 174.45 149.445 173.903 148.943C173.402 148.442 172.764 148.032 171.989 147.713C171.215 147.348 170.371 147.007 169.46 146.688C168.549 146.368 167.705 146.004 166.931 145.594C166.156 145.138 165.495 144.591 164.948 143.953C164.447 143.315 164.196 142.472 164.196 141.424C164.196 140.33 164.424 139.282 164.88 138.279C165.381 137.277 166.019 136.388 166.794 135.613C169.483 133.016 172.559 131.147 176.022 130.008C179.532 128.823 183.132 128.23 186.823 128.23C187.097 128.23 187.302 128.344 187.438 128.572C187.575 128.755 187.644 128.96 187.644 129.188ZM205.417 117.225C205.417 117.316 205.394 117.384 205.349 117.43C205.349 117.475 205.349 117.521 205.349 117.566C203.936 120.711 202.478 123.833 200.974 126.932C199.47 129.985 198.125 133.152 196.94 136.434C197.442 136.434 197.92 136.434 198.376 136.434C198.832 136.388 199.31 136.365 199.812 136.365C200.039 136.365 200.29 136.365 200.563 136.365C200.882 136.32 201.156 136.342 201.384 136.434C201.657 136.479 201.885 136.593 202.067 136.775C202.25 136.912 202.341 137.163 202.341 137.527C202.341 137.983 202.159 138.279 201.794 138.416C201.475 138.507 201.042 138.621 200.495 138.758C199.994 138.849 199.447 138.94 198.854 139.031C198.308 139.122 197.761 139.214 197.214 139.305C196.713 139.35 196.28 139.396 195.915 139.441C195.505 140.626 195.118 141.948 194.753 143.406C194.388 144.819 194.069 146.3 193.796 147.85C193.522 149.354 193.295 150.857 193.112 152.361C192.93 153.82 192.839 155.164 192.839 156.395C192.839 156.714 192.839 157.215 192.839 157.898C192.884 158.536 192.953 159.174 193.044 159.812C193.181 160.451 193.363 161.02 193.591 161.521C193.864 162.023 194.229 162.273 194.685 162.273C195.323 162.273 196.052 161.954 196.872 161.316C197.692 160.678 198.49 159.949 199.265 159.129C200.085 158.263 200.837 157.42 201.521 156.6C202.25 155.734 202.842 155.073 203.298 154.617C203.48 154.435 203.685 154.344 203.913 154.344C204.187 154.344 204.437 154.458 204.665 154.686C204.938 154.913 205.075 155.164 205.075 155.438C205.075 155.574 205.007 155.734 204.87 155.916C204.369 156.645 203.708 157.557 202.888 158.65C202.113 159.699 201.247 160.724 200.29 161.727C199.379 162.684 198.399 163.504 197.351 164.188C196.348 164.871 195.368 165.213 194.411 165.213C193.363 165.213 192.52 164.848 191.882 164.119C191.244 163.39 190.743 162.524 190.378 161.521C190.059 160.473 189.831 159.402 189.694 158.309C189.603 157.169 189.558 156.212 189.558 155.438C189.558 154.344 189.626 153.113 189.763 151.746C189.945 150.379 190.15 148.989 190.378 147.576C190.606 146.163 190.879 144.796 191.198 143.475C191.517 142.107 191.813 140.877 192.087 139.783C191.722 139.783 191.358 139.806 190.993 139.852C190.674 139.852 190.332 139.852 189.968 139.852C189.011 139.852 188.031 139.829 187.028 139.783C186.026 139.738 185.046 139.646 184.089 139.51C183.132 139.327 182.198 139.054 181.286 138.689C180.375 138.279 179.554 137.732 178.825 137.049C178.643 136.912 178.552 136.707 178.552 136.434C178.552 136.342 178.688 136.115 178.962 135.75C179.235 135.34 179.418 135.135 179.509 135.135C181.195 135.135 182.858 135.317 184.499 135.682C186.14 136.046 187.803 136.274 189.489 136.365C190.036 136.411 190.583 136.434 191.13 136.434C191.722 136.434 192.315 136.434 192.907 136.434H193.112C193.614 134.884 194.229 133.198 194.958 131.375C195.687 129.552 196.507 127.752 197.419 125.975C198.33 124.197 199.287 122.488 200.29 120.848C201.338 119.161 202.409 117.703 203.503 116.473C203.776 116.29 204.004 116.199 204.187 116.199C204.46 116.199 204.733 116.313 205.007 116.541C205.28 116.723 205.417 116.951 205.417 117.225ZM236.589 151.336C235.404 153.751 234.174 155.916 232.897 157.83C231.621 159.699 229.958 161.521 227.907 163.299C226.905 164.21 225.765 164.666 224.489 164.666C223.806 164.666 223.145 164.461 222.507 164.051C221.914 163.686 221.504 163.162 221.276 162.479C221.185 162.251 221.117 161.932 221.071 161.521C221.071 161.111 221.049 160.678 221.003 160.223C221.003 159.767 221.003 159.334 221.003 158.924C221.049 158.468 221.071 158.104 221.071 157.83C219.476 159.744 217.585 161.362 215.397 162.684C213.256 164.051 210.886 164.734 208.288 164.734C208.151 164.734 207.946 164.689 207.673 164.598C207.445 164.507 207.263 164.438 207.126 164.393C206.078 163.891 205.28 163.094 204.733 162C204.232 160.906 203.981 159.812 203.981 158.719C203.981 157.215 204.164 155.734 204.528 154.275C204.938 152.771 205.463 151.336 206.101 149.969C206.784 148.556 207.559 147.212 208.425 145.936C209.291 144.66 210.202 143.452 211.159 142.312C213.62 139.259 216.446 136.616 219.636 134.383C222.826 132.104 226.289 130.281 230.026 128.914C230.072 128.868 230.163 128.846 230.3 128.846C230.619 128.846 230.847 128.96 230.983 129.188C231.166 129.415 231.257 129.666 231.257 129.939C231.257 130.35 231.097 130.623 230.778 130.76C230.004 131.17 229.229 131.557 228.454 131.922C227.725 132.241 226.996 132.605 226.267 133.016C221.208 135.932 216.947 139.669 213.483 144.227C212.8 145.138 212.093 146.163 211.364 147.303C210.635 148.442 209.974 149.627 209.382 150.857C208.789 152.042 208.288 153.273 207.878 154.549C207.513 155.825 207.331 157.055 207.331 158.24C207.331 158.423 207.354 158.696 207.399 159.061C207.445 159.38 207.513 159.721 207.604 160.086C207.696 160.405 207.832 160.701 208.015 160.975C208.243 161.202 208.493 161.316 208.767 161.316C210.088 161.316 211.364 160.975 212.595 160.291C213.871 159.607 215.056 158.742 216.149 157.693C217.243 156.645 218.223 155.529 219.089 154.344C219.955 153.159 220.661 152.042 221.208 150.994C222.256 149.08 223.19 147.166 224.011 145.252C224.831 143.292 225.651 141.333 226.472 139.373C226.791 138.553 227.155 137.596 227.565 136.502C228.021 135.408 228.454 134.474 228.864 133.699C229.047 133.38 229.343 133.221 229.753 133.221C230.072 133.221 230.345 133.312 230.573 133.494C230.801 133.676 230.915 133.927 230.915 134.246L230.847 134.383C230.482 136.023 230.072 137.687 229.616 139.373C229.16 141.014 228.659 142.632 228.112 144.227C227.884 144.865 227.611 145.571 227.292 146.346C226.973 147.12 226.722 147.781 226.54 148.328C226.449 148.647 226.381 148.966 226.335 149.285C226.335 149.604 226.312 149.923 226.267 150.242C226.13 150.971 225.97 151.701 225.788 152.43C225.651 153.113 225.492 153.82 225.31 154.549C225.082 155.46 224.877 156.395 224.694 157.352C224.558 158.263 224.489 159.197 224.489 160.154C224.489 160.382 224.489 160.587 224.489 160.77C224.489 160.952 224.512 161.134 224.558 161.316C224.877 161.316 225.241 161.18 225.651 160.906C226.107 160.633 226.563 160.314 227.019 159.949C227.474 159.539 227.884 159.129 228.249 158.719C228.659 158.309 228.978 157.99 229.206 157.762C230.573 156.303 231.872 154.686 233.103 152.908C233.422 152.544 233.695 152.156 233.923 151.746C234.196 151.29 234.493 150.88 234.812 150.516C234.948 150.288 235.153 150.174 235.427 150.174C235.746 150.174 236.019 150.288 236.247 150.516C236.475 150.743 236.589 151.017 236.589 151.336ZM269.333 129.871C269.333 130.053 269.31 130.19 269.265 130.281C267.533 134.93 265.687 139.487 263.728 143.953C261.768 148.374 259.922 152.908 258.19 157.557C257.325 159.79 256.55 162.023 255.866 164.256C255.228 166.489 254.59 168.768 253.952 171.092C253.815 171.593 253.656 172.049 253.474 172.459C253.337 172.915 253.177 173.393 252.995 173.895C252.448 175.581 251.879 177.221 251.286 178.816C250.694 180.457 250.01 182.052 249.235 183.602C248.461 185.151 247.572 186.609 246.569 187.977C245.567 189.389 244.427 190.597 243.151 191.6C241.875 192.648 240.485 193.468 238.981 194.061C237.478 194.699 235.837 195.018 234.06 195.018C232.191 195.018 230.459 194.676 228.864 193.992C227.224 193.354 225.72 192.465 224.353 191.326C222.985 190.232 221.778 188.911 220.729 187.361C219.636 185.857 218.679 184.217 217.858 182.439C217.767 182.257 217.722 182.098 217.722 181.961C217.676 181.596 217.79 181.323 218.063 181.141C218.291 181.004 218.542 180.936 218.815 180.936C218.998 180.936 219.157 181.004 219.294 181.141C219.431 181.277 219.545 181.414 219.636 181.551C219.955 182.052 220.251 182.576 220.524 183.123C220.752 183.715 221.049 184.262 221.413 184.764C222.097 185.721 222.894 186.632 223.806 187.498C224.672 188.41 225.651 189.184 226.745 189.822C227.793 190.506 228.91 191.03 230.095 191.395C231.28 191.805 232.487 192.01 233.718 192.01C235.586 192.01 237.318 191.554 238.913 190.643C241.192 189.275 243.083 187.384 244.587 184.969C246.091 182.553 247.39 179.887 248.483 176.971C249.532 174.145 250.42 171.251 251.149 168.289C251.924 165.372 252.699 162.638 253.474 160.086C252.927 160.587 252.266 161.134 251.491 161.727C250.716 162.319 249.919 162.866 249.099 163.367C248.278 163.914 247.435 164.37 246.569 164.734C245.749 165.099 244.997 165.281 244.313 165.281C242.992 165.281 241.784 164.848 240.69 163.982C239.642 163.117 238.981 161.954 238.708 160.496C238.48 159.585 238.343 158.742 238.298 157.967C238.207 156.554 238.252 155.073 238.435 153.523C238.662 151.928 238.959 150.356 239.323 148.807C239.733 147.212 240.189 145.685 240.69 144.227C241.192 142.723 241.716 141.355 242.263 140.125C243.402 137.482 244.632 134.884 245.954 132.332C246.228 131.831 246.478 131.307 246.706 130.76C246.934 130.213 247.207 129.689 247.526 129.188C247.709 128.914 247.982 128.777 248.347 128.777C248.575 128.777 248.825 128.914 249.099 129.188C249.372 129.415 249.532 129.666 249.577 129.939L249.372 130.965C248.962 132.879 248.415 134.747 247.731 136.57C247.093 138.393 246.41 140.171 245.681 141.902C245.179 143.133 244.655 144.432 244.108 145.799C243.607 147.12 243.151 148.465 242.741 149.832C242.377 151.199 242.08 152.589 241.853 154.002C241.625 155.369 241.556 156.736 241.647 158.104C241.693 158.514 241.739 158.947 241.784 159.402C241.875 159.858 242.012 160.291 242.194 160.701C242.377 161.066 242.604 161.385 242.878 161.658C243.151 161.886 243.516 162 243.972 162C244.746 162 245.658 161.749 246.706 161.248C247.754 160.701 248.802 160.086 249.851 159.402C250.899 158.673 251.879 157.921 252.79 157.146C253.747 156.372 254.522 155.711 255.114 155.164C256.299 151.883 257.575 148.693 258.942 145.594C260.31 142.449 261.791 139.373 263.386 136.365C264.024 135.18 264.662 133.973 265.3 132.742C265.938 131.466 266.621 130.258 267.351 129.119C267.533 128.8 267.806 128.641 268.171 128.641C268.49 128.641 268.741 128.777 268.923 129.051C269.151 129.279 269.287 129.552 269.333 129.871ZM285.739 111.072C285.739 111.346 285.625 111.665 285.397 112.029L285.329 112.234C285.42 112.508 285.466 112.713 285.466 112.85C285.147 113.077 284.919 113.328 284.782 113.602C284.646 113.829 284.326 113.943 283.825 113.943C283.415 113.943 283.005 113.784 282.595 113.465C282.185 113.1 281.979 112.667 281.979 112.166C281.979 111.346 282.048 110.685 282.185 110.184C282.367 109.637 282.982 109.363 284.03 109.363C284.44 109.363 284.828 109.546 285.192 109.91C285.557 110.275 285.739 110.662 285.739 111.072ZM285.261 154.686C285.261 154.913 285.192 155.096 285.056 155.232C284.19 156.281 283.347 157.329 282.526 158.377C281.752 159.38 280.909 160.314 279.997 161.18C279.131 162.046 278.151 162.775 277.058 163.367C275.964 164.005 274.711 164.461 273.298 164.734C272.067 164.188 271.224 163.458 270.769 162.547C270.313 161.681 270.085 160.61 270.085 159.334V156.873C270.085 155.688 270.199 154.458 270.427 153.182C270.7 151.906 270.974 150.675 271.247 149.49C271.657 147.713 272.113 145.799 272.614 143.748C273.161 141.697 273.776 139.669 274.46 137.664C275.189 135.613 276.009 133.654 276.921 131.785C277.832 129.871 278.858 128.208 279.997 126.795C280.225 126.567 280.453 126.453 280.681 126.453C280.954 126.453 281.228 126.567 281.501 126.795C281.774 126.977 281.911 127.228 281.911 127.547V127.684C281.136 130.099 280.248 132.651 279.245 135.34C278.288 137.983 277.354 140.695 276.442 143.475C275.576 146.209 274.825 148.943 274.187 151.678C273.594 154.412 273.298 157.055 273.298 159.607C273.298 159.881 273.298 160.268 273.298 160.77C273.343 161.271 273.503 161.59 273.776 161.727C274.779 161.544 275.827 161.02 276.921 160.154C278.06 159.288 279.108 158.377 280.065 157.42C281.068 156.463 281.934 155.597 282.663 154.822C283.392 154.048 283.894 153.66 284.167 153.66C284.395 153.66 284.623 153.774 284.851 154.002C285.124 154.23 285.261 154.458 285.261 154.686ZM318.073 157.42C318.073 157.693 317.959 157.898 317.731 158.035C317.23 158.445 316.638 158.901 315.954 159.402C315.271 159.904 314.541 160.405 313.767 160.906C312.992 161.362 312.217 161.795 311.442 162.205C310.713 162.615 310.052 162.934 309.46 163.162C308.412 163.618 307.432 163.846 306.521 163.846C305.153 163.846 304.151 163.344 303.513 162.342C302.92 161.385 302.624 160.314 302.624 159.129C302.624 157.716 302.852 156.121 303.308 154.344C303.763 152.521 304.31 150.675 304.948 148.807C305.586 146.938 306.247 145.115 306.931 143.338C307.66 141.515 308.275 139.92 308.776 138.553C309.278 137.231 309.733 135.91 310.144 134.588C310.554 133.221 310.827 131.808 310.964 130.35C310.144 130.441 309.027 130.896 307.614 131.717C306.201 132.537 304.72 133.494 303.171 134.588C301.667 135.636 300.231 136.684 298.864 137.732C297.497 138.781 296.426 139.578 295.651 140.125L293.19 145.047C292.097 147.189 291.049 149.331 290.046 151.473C289.089 153.569 288.155 155.711 287.243 157.898C286.833 158.947 286.446 159.995 286.081 161.043C285.716 162.091 285.306 163.139 284.851 164.188C284.714 164.552 284.463 164.734 284.099 164.734C283.916 164.734 283.688 164.62 283.415 164.393C283.096 164.165 282.937 163.96 282.937 163.777C282.937 163.732 282.982 163.572 283.073 163.299C283.119 163.071 283.187 162.798 283.278 162.479C283.324 162.16 283.392 161.863 283.483 161.59C283.529 161.316 283.552 161.134 283.552 161.043C284.326 158.035 285.261 155.073 286.354 152.156C287.494 149.24 288.747 146.368 290.114 143.543C290.752 142.221 291.368 140.9 291.96 139.578C292.552 138.211 293.168 136.867 293.806 135.545C294.079 135.044 294.398 134.428 294.763 133.699C295.173 132.97 295.583 132.241 295.993 131.512C296.449 130.737 296.905 130.031 297.36 129.393C297.816 128.709 298.249 128.185 298.659 127.82C298.841 127.638 299.047 127.547 299.274 127.547C299.457 127.547 299.707 127.684 300.026 127.957C300.345 128.185 300.505 128.413 300.505 128.641C300.505 128.777 300.414 129.096 300.231 129.598C300.095 130.099 299.912 130.646 299.685 131.238C299.457 131.785 299.229 132.332 299.001 132.879C298.819 133.38 298.705 133.722 298.659 133.904C299.434 133.175 300.323 132.378 301.325 131.512C302.373 130.646 303.467 129.848 304.606 129.119C305.791 128.39 306.999 127.798 308.229 127.342C309.46 126.84 310.622 126.59 311.716 126.59C312.354 126.59 312.946 126.886 313.493 127.479C314.086 128.025 314.427 128.618 314.519 129.256C314.61 129.712 314.655 130.053 314.655 130.281C314.655 131.056 314.496 132.013 314.177 133.152C313.903 134.246 313.63 135.18 313.356 135.955C312.901 137.277 312.24 139.031 311.374 141.219C310.508 143.361 309.642 145.571 308.776 147.85C307.91 150.128 307.159 152.316 306.521 154.412C305.882 156.508 305.563 158.149 305.563 159.334C305.563 159.835 305.609 160.268 305.7 160.633C305.791 160.952 306.133 161.111 306.726 161.111C307.546 161.111 308.503 160.861 309.597 160.359C310.736 159.858 311.83 159.311 312.878 158.719C313.926 158.081 314.838 157.511 315.612 157.01C316.387 156.508 316.866 156.258 317.048 156.258C317.321 156.258 317.549 156.395 317.731 156.668C317.959 156.896 318.073 157.146 318.073 157.42ZM344.87 130.828C344.87 130.919 344.825 131.056 344.733 131.238C344.642 132.013 344.551 132.765 344.46 133.494C344.414 134.178 344.323 134.884 344.187 135.613C343.959 137.117 343.708 138.598 343.435 140.057C343.161 141.515 342.865 142.973 342.546 144.432C341.407 149.673 339.994 154.822 338.308 159.881C336.667 164.939 334.844 169.952 332.839 174.92C332.11 176.697 331.335 178.475 330.515 180.252C329.74 182.075 328.851 183.829 327.849 185.516C326.892 187.247 325.821 188.888 324.636 190.438C323.451 191.987 322.106 193.4 320.603 194.676C318.506 196.544 316.091 197.479 313.356 197.479C311.898 197.479 310.485 197.228 309.118 196.727C307.751 196.225 306.475 195.542 305.29 194.676C304.105 193.855 303.057 192.853 302.146 191.668C301.188 190.529 300.459 189.298 299.958 187.977C299.912 187.931 299.89 187.817 299.89 187.635C299.89 187.361 300.004 187.133 300.231 186.951C300.459 186.769 300.71 186.678 300.983 186.678C301.302 186.678 301.576 186.837 301.804 187.156C302.032 187.566 302.259 187.977 302.487 188.387C302.67 188.797 302.92 189.184 303.239 189.549C304.424 191.007 305.882 192.215 307.614 193.172C309.3 194.174 311.078 194.676 312.946 194.676C315.088 194.676 316.979 193.924 318.62 192.42C319.896 191.281 321.104 189.891 322.243 188.25C323.382 186.609 324.453 184.832 325.456 182.918C326.504 181.004 327.461 178.999 328.327 176.902C329.239 174.806 330.059 172.71 330.788 170.613C331.563 168.562 332.269 166.557 332.907 164.598C333.545 162.638 334.138 160.838 334.685 159.197C333.044 160.792 331.267 162.046 329.353 162.957C327.438 163.868 325.319 164.324 322.995 164.324C322.95 164.324 322.881 164.324 322.79 164.324C322.699 164.324 322.631 164.301 322.585 164.256C321.537 164.028 320.648 163.618 319.919 163.025C319.235 162.433 318.666 161.749 318.21 160.975C317.8 160.154 317.504 159.288 317.321 158.377C317.139 157.42 317.048 156.463 317.048 155.506C317.048 152.771 317.435 150.06 318.21 147.371C319.03 144.682 320.238 142.199 321.833 139.92C322.836 138.553 323.975 137.231 325.251 135.955C326.527 134.633 327.917 133.494 329.421 132.537C330.925 131.535 332.52 130.737 334.206 130.145C335.892 129.507 337.624 129.188 339.401 129.188C339.675 129.188 340.108 129.21 340.7 129.256C341.293 129.301 341.885 129.393 342.478 129.529C343.116 129.62 343.662 129.78 344.118 130.008C344.619 130.236 344.87 130.509 344.87 130.828ZM342.478 131.648C341.794 131.466 341.019 131.375 340.153 131.375C338.558 131.375 336.986 131.671 335.437 132.264C333.887 132.856 332.429 133.654 331.062 134.656C329.694 135.613 328.441 136.707 327.302 137.938C326.162 139.168 325.16 140.398 324.294 141.629C323.018 143.543 322.038 145.662 321.354 147.986C320.716 150.311 320.397 152.635 320.397 154.959C320.397 155.46 320.42 156.053 320.466 156.736C320.557 157.42 320.694 158.081 320.876 158.719C321.104 159.311 321.423 159.835 321.833 160.291C322.289 160.701 322.858 160.906 323.542 160.906C324.955 160.906 326.322 160.564 327.644 159.881C329.011 159.197 330.264 158.331 331.403 157.283C332.543 156.235 333.545 155.073 334.411 153.797C335.323 152.475 336.052 151.222 336.599 150.037C337.966 147.075 339.06 144.044 339.88 140.945C340.746 137.846 341.612 134.747 342.478 131.648Z" fill="white"/>
</svg>
